<svg width="55" height="66" viewBox="0 0 55 66" fill="none" xmlns="http://www.w3.org/2000/svg">
<path d="M7.80469 56.9219H3.13281V60.4219H8.59375V62H1.15625V50.625H8.53906V52.2188H3.13281V55.3594H7.80469V56.9219ZM11.8047 53.5469L11.8594 54.4297C12.4531 53.737 13.2656 53.3906 14.2969 53.3906C15.4271 53.3906 16.2005 53.8229 16.6172 54.6875C17.2318 53.8229 18.0964 53.3906 19.2109 53.3906C20.1432 53.3906 20.8359 53.6484 21.2891 54.1641C21.7474 54.6797 21.9818 55.4401 21.9922 56.4453V62H20.0938V56.5C20.0938 55.9635 19.9766 55.5703 19.7422 55.3203C19.5078 55.0703 19.1198 54.9453 18.5781 54.9453C18.1458 54.9453 17.7917 55.0625 17.5156 55.2969C17.2448 55.526 17.0547 55.8281 16.9453 56.2031L16.9531 62H15.0547V56.4375C15.0286 55.4427 14.5208 54.9453 13.5312 54.9453C12.7708 54.9453 12.2318 55.2552 11.9141 55.875V62H10.0156V53.5469H11.8047ZM27.6641 62.1562C26.4609 62.1562 25.4844 61.7786 24.7344 61.0234C23.9896 60.263 23.6172 59.2526 23.6172 57.9922V57.7578C23.6172 56.9141 23.7786 56.1615 24.1016 55.5C24.4297 54.8333 24.888 54.3151 25.4766 53.9453C26.0651 53.5755 26.7214 53.3906 27.4453 53.3906C28.5964 53.3906 29.4844 53.7578 30.1094 54.4922C30.7396 55.2266 31.0547 56.2656 31.0547 57.6094V58.375H25.5312C25.5885 59.0729 25.8203 59.625 26.2266 60.0312C26.638 60.4375 27.1536 60.6406 27.7734 60.6406C28.6432 60.6406 29.3516 60.2891 29.8984 59.5859L30.9219 60.5625C30.5833 61.0677 30.1302 61.4609 29.5625 61.7422C29 62.0182 28.3672 62.1562 27.6641 62.1562ZM27.4375 54.9141C26.9167 54.9141 26.4948 55.0964 26.1719 55.4609C25.8542 55.8255 25.651 56.3333 25.5625 56.9844H29.1797V56.8438C29.138 56.2083 28.9688 55.7292 28.6719 55.4062C28.375 55.0781 27.9635 54.9141 27.4375 54.9141ZM34.2969 53.5469L34.3516 54.5234C34.9766 53.7682 35.7969 53.3906 36.8125 53.3906C38.5729 53.3906 39.4688 54.3984 39.5 56.4141V62H37.6016V56.5234C37.6016 55.987 37.4844 55.5911 37.25 55.3359C37.0208 55.0755 36.6432 54.9453 36.1172 54.9453C35.3516 54.9453 34.7812 55.2917 34.4062 55.9844V62H32.5078V53.5469H34.2969ZM43.8203 51.4922V53.5469H45.3125V54.9531H43.8203V59.6719C43.8203 59.9948 43.8828 60.2292 44.0078 60.375C44.138 60.5156 44.3672 60.5859 44.6953 60.5859C44.9141 60.5859 45.1354 60.5599 45.3594 60.5078V61.9766C44.9271 62.0964 44.5104 62.1562 44.1094 62.1562C42.651 62.1562 41.9219 61.3516 41.9219 59.7422V54.9531H40.5312V53.5469H41.9219V51.4922H43.8203ZM51.8203 62C51.737 61.8385 51.6641 61.5755 51.6016 61.2109C50.9974 61.8411 50.2578 62.1562 49.3828 62.1562C48.5339 62.1562 47.8411 61.9141 47.3047 61.4297C46.7682 60.9453 46.5 60.3464 46.5 59.6328C46.5 58.7318 46.8333 58.0417 47.5 57.5625C48.1719 57.0781 49.1302 56.8359 50.375 56.8359H51.5391V56.2812C51.5391 55.8438 51.4167 55.4948 51.1719 55.2344C50.9271 54.9688 50.5547 54.8359 50.0547 54.8359C49.6224 54.8359 49.2682 54.9453 48.9922 55.1641C48.7161 55.3776 48.5781 55.651 48.5781 55.9844H46.6797C46.6797 55.5208 46.8333 55.0885 47.1406 54.6875C47.4479 54.2812 47.8646 53.9635 48.3906 53.7344C48.9219 53.5052 49.513 53.3906 50.1641 53.3906C51.1536 53.3906 51.9427 53.6406 52.5312 54.1406C53.1198 54.6354 53.4219 55.3333 53.4375 56.2344V60.0469C53.4375 60.8073 53.5443 61.4141 53.7578 61.8672V62H51.8203ZM49.7344 60.6328C50.1094 60.6328 50.4609 60.5417 50.7891 60.3594C51.1224 60.1771 51.3724 59.9323 51.5391 59.625V58.0312H50.5156C49.8125 58.0312 49.2839 58.1536 48.9297 58.3984C48.5755 58.6432 48.3984 58.9896 48.3984 59.4375C48.3984 59.8021 48.5182 60.0938 48.7578 60.3125C49.0026 60.526 49.3281 60.6328 49.7344 60.6328Z" fill="black"/>
<circle cx="27" cy="21" r="21" fill="#9BCCFA"/>
<path d="M25.8 9V11.484C23.6881 11.7522 21.7253 12.7146 20.22 14.22C18.7146 15.7253 17.7522 17.6881 17.484 19.8H15V22.2H17.484C17.7522 24.3119 18.7146 26.2747 20.22 27.78C21.7253 29.2854 23.6881 30.2478 25.8 30.516V33H28.2V30.516C30.3119 30.2478 32.2747 29.2854 33.78 27.78C35.2854 26.2747 36.2478 24.3119 36.516 22.2H39V19.8H36.516C36.2478 17.6881 35.2854 15.7253 33.78 14.22C32.2747 12.7146 30.3119 11.7522 28.2 11.484V9H25.8ZM25.8 13.896V16.2H28.2V13.908C31.2 14.4 33.6 16.8 34.104 19.8H31.8V22.2H34.092C33.6 25.2 31.2 27.6 28.2 28.104V25.8H25.8V28.092C22.8 27.6 20.4 25.2 19.896 22.2H22.2V19.8H19.908C20.4 16.8 22.8 14.4 25.8 13.896ZM27 19.8C26.6817 19.8 26.3765 19.9264 26.1515 20.1515C25.9264 20.3765 25.8 20.6817 25.8 21C25.8 21.3183 25.9264 21.6235 26.1515 21.8485C26.3765 22.0736 26.6817 22.2 27 22.2C27.3183 22.2 27.6235 22.0736 27.8485 21.8485C28.0736 21.6235 28.2 21.3183 28.2 21C28.2 20.6817 28.0736 20.3765 27.8485 20.1515C27.6235 19.9264 27.3183 19.8 27 19.8Z" fill="#246BD7"/>
</svg>