<svg width="101" height="66" viewBox="0 0 101 66" fill="none" xmlns="http://www.w3.org/2000/svg">
<path d="M10.2344 56.6094C10.2344 57.724 10.0417 58.7031 9.65625 59.5469C9.27083 60.3854 8.71875 61.0312 8 61.4844C7.28646 61.9323 6.46354 62.1562 5.53125 62.1562C4.60938 62.1562 3.78646 61.9323 3.0625 61.4844C2.34375 61.0312 1.78646 60.388 1.39062 59.5547C1 58.7214 0.802083 57.7604 0.796875 56.6719V56.0312C0.796875 54.9219 0.992188 53.9427 1.38281 53.0938C1.77865 52.2448 2.33333 51.5964 3.04688 51.1484C3.76562 50.6953 4.58854 50.4688 5.51562 50.4688C6.44271 50.4688 7.26302 50.6927 7.97656 51.1406C8.69531 51.5833 9.25 52.224 9.64062 53.0625C10.0312 53.8958 10.2292 54.8672 10.2344 55.9766V56.6094ZM8.25781 56.0156C8.25781 54.7552 8.01823 53.7891 7.53906 53.1172C7.0651 52.4453 6.39062 52.1094 5.51562 52.1094C4.66146 52.1094 3.99219 52.4453 3.50781 53.1172C3.02865 53.7839 2.78385 54.7292 2.77344 55.9531V56.6094C2.77344 57.8594 3.01562 58.8255 3.5 59.5078C3.98958 60.1901 4.66667 60.5312 5.53125 60.5312C6.40625 60.5312 7.07812 60.1979 7.54688 59.5312C8.02083 58.8646 8.25781 57.8906 8.25781 56.6094V56.0156ZM19.4375 57.8594C19.4375 59.1719 19.1432 60.2161 18.5547 60.9922C17.9714 61.7682 17.1667 62.1562 16.1406 62.1562C15.151 62.1562 14.3802 61.7995 13.8281 61.0859L13.7344 62H12.0156V50H13.9141V54.3594C14.4609 53.7135 15.1979 53.3906 16.125 53.3906C17.1562 53.3906 17.9661 53.7734 18.5547 54.5391C19.1432 55.3047 19.4375 56.375 19.4375 57.75V57.8594ZM17.5391 57.6953C17.5391 56.7786 17.3776 56.0911 17.0547 55.6328C16.7318 55.1745 16.263 54.9453 15.6484 54.9453C14.8255 54.9453 14.2474 55.3047 13.9141 56.0234V59.5078C14.2526 60.2422 14.8359 60.6094 15.6641 60.6094C16.2578 60.6094 16.7161 60.388 17.0391 59.9453C17.362 59.5026 17.5286 58.8333 17.5391 57.9375V57.6953ZM23.0156 53.5469V62.75C23.0156 63.6146 22.7995 64.2734 22.3672 64.7266C21.9401 65.1849 21.3125 65.4141 20.4844 65.4141C20.1354 65.4141 19.7995 65.3698 19.4766 65.2812V63.7812C19.6745 63.8281 19.8984 63.8516 20.1484 63.8516C20.7786 63.8516 21.1016 63.5078 21.1172 62.8203V53.5469H23.0156ZM20.9531 51.3516C20.9531 51.0599 21.0443 50.8177 21.2266 50.625C21.4141 50.4323 21.6797 50.3359 22.0234 50.3359C22.3672 50.3359 22.6328 50.4323 22.8203 50.625C23.0078 50.8177 23.1016 51.0599 23.1016 51.3516C23.1016 51.638 23.0078 51.8776 22.8203 52.0703C22.6328 52.2578 22.3672 52.3516 22.0234 52.3516C21.6797 52.3516 21.4141 52.2578 21.2266 52.0703C21.0443 51.8776 20.9531 51.638 20.9531 51.3516ZM28.7734 62.1562C27.5703 62.1562 26.5938 61.7786 25.8438 61.0234C25.099 60.263 24.7266 59.2526 24.7266 57.9922V57.7578C24.7266 56.9141 24.888 56.1615 25.2109 55.5C25.5391 54.8333 25.9974 54.3151 26.5859 53.9453C27.1745 53.5755 27.8307 53.3906 28.5547 53.3906C29.7057 53.3906 30.5938 53.7578 31.2188 54.4922C31.849 55.2266 32.1641 56.2656 32.1641 57.6094V58.375H26.6406C26.6979 59.0729 26.9297 59.625 27.3359 60.0312C27.7474 60.4375 28.263 60.6406 28.8828 60.6406C29.7526 60.6406 30.4609 60.2891 31.0078 59.5859L32.0312 60.5625C31.6927 61.0677 31.2396 61.4609 30.6719 61.7422C30.1094 62.0182 29.4766 62.1562 28.7734 62.1562ZM28.5469 54.9141C28.026 54.9141 27.6042 55.0964 27.2812 55.4609C26.9635 55.8255 26.7604 56.3333 26.6719 56.9844H30.2891V56.8438C30.2474 56.2083 30.0781 55.7292 29.7812 55.4062C29.4844 55.0781 29.0729 54.9141 28.5469 54.9141ZM36.0234 51.4922V53.5469H37.5156V54.9531H36.0234V59.6719C36.0234 59.9948 36.0859 60.2292 36.2109 60.375C36.3411 60.5156 36.5703 60.5859 36.8984 60.5859C37.1172 60.5859 37.3385 60.5599 37.5625 60.5078V61.9766C37.1302 62.0964 36.7135 62.1562 36.3125 62.1562C34.8542 62.1562 34.125 61.3516 34.125 59.7422V54.9531H32.7344V53.5469H34.125V51.4922H36.0234ZM40.9922 62H39.0938V53.5469H40.9922V62ZM38.9766 51.3516C38.9766 51.0599 39.0677 50.8177 39.25 50.625C39.4375 50.4323 39.7031 50.3359 40.0469 50.3359C40.3906 50.3359 40.6562 50.4323 40.8438 50.625C41.0312 50.8177 41.125 51.0599 41.125 51.3516C41.125 51.638 41.0312 51.8776 40.8438 52.0703C40.6562 52.2578 40.3906 52.3516 40.0469 52.3516C39.7031 52.3516 39.4375 52.2578 39.25 52.0703C39.0677 51.8776 38.9766 51.638 38.9766 51.3516ZM46.0469 59.5938L47.8359 53.5469H49.7969L46.8672 62H45.2188L42.2656 53.5469H44.2344L46.0469 59.5938ZM50.5078 57.6953C50.5078 56.8672 50.6719 56.1224 51 55.4609C51.3281 54.7943 51.7891 54.2839 52.3828 53.9297C52.9766 53.5703 53.6589 53.3906 54.4297 53.3906C55.5703 53.3906 56.4948 53.7578 57.2031 54.4922C57.9167 55.2266 58.3021 56.2005 58.3594 57.4141L58.3672 57.8594C58.3672 58.6927 58.2057 59.4375 57.8828 60.0938C57.5651 60.75 57.1068 61.2578 56.5078 61.6172C55.9141 61.9766 55.2266 62.1562 54.4453 62.1562C53.2526 62.1562 52.2969 61.7604 51.5781 60.9688C50.8646 60.1719 50.5078 59.112 50.5078 57.7891V57.6953ZM52.4062 57.8594C52.4062 58.7292 52.5859 59.4115 52.9453 59.9062C53.3047 60.3958 53.8047 60.6406 54.4453 60.6406C55.0859 60.6406 55.5833 60.3906 55.9375 59.8906C56.2969 59.3906 56.4766 58.6589 56.4766 57.6953C56.4766 56.8411 56.2917 56.1641 55.9219 55.6641C55.5573 55.1641 55.0599 54.9141 54.4297 54.9141C53.8099 54.9141 53.3177 55.1615 52.9531 55.6562C52.5885 56.1458 52.4062 56.8802 52.4062 57.8594ZM72.8594 60.5234C72.4479 61.0599 71.8776 61.4661 71.1484 61.7422C70.4193 62.0182 69.5911 62.1562 68.6641 62.1562C67.7109 62.1562 66.8672 61.9401 66.1328 61.5078C65.3984 61.0755 64.8307 60.4583 64.4297 59.6562C64.0339 58.849 63.8281 57.9089 63.8125 56.8359V55.9453C63.8125 54.2266 64.224 52.8854 65.0469 51.9219C65.8698 50.9531 67.0182 50.4688 68.4922 50.4688C69.7578 50.4688 70.763 50.7812 71.5078 51.4062C72.2526 52.0312 72.7005 52.9323 72.8516 54.1094H70.9141C70.6953 52.7396 69.901 52.0547 68.5312 52.0547C67.6458 52.0547 66.9714 52.375 66.5078 53.0156C66.0495 53.651 65.8125 54.5859 65.7969 55.8203V56.6953C65.7969 57.9245 66.0547 58.8802 66.5703 59.5625C67.0911 60.2396 67.8125 60.5781 68.7344 60.5781C69.7448 60.5781 70.4635 60.349 70.8906 59.8906V57.6641H68.5469V56.1641H72.8594V60.5234ZM78.5703 62.1562C77.3672 62.1562 76.3906 61.7786 75.6406 61.0234C74.8958 60.263 74.5234 59.2526 74.5234 57.9922V57.7578C74.5234 56.9141 74.6849 56.1615 75.0078 55.5C75.3359 54.8333 75.7943 54.3151 76.3828 53.9453C76.9714 53.5755 77.6276 53.3906 78.3516 53.3906C79.5026 53.3906 80.3906 53.7578 81.0156 54.4922C81.6458 55.2266 81.9609 56.2656 81.9609 57.6094V58.375H76.4375C76.4948 59.0729 76.7266 59.625 77.1328 60.0312C77.5443 60.4375 78.0599 60.6406 78.6797 60.6406C79.5495 60.6406 80.2578 60.2891 80.8047 59.5859L81.8281 60.5625C81.4896 61.0677 81.0365 61.4609 80.4688 61.7422C79.9062 62.0182 79.2734 62.1562 78.5703 62.1562ZM78.3438 54.9141C77.8229 54.9141 77.401 55.0964 77.0781 55.4609C76.7604 55.8255 76.5573 56.3333 76.4688 56.9844H80.0859V56.8438C80.0443 56.2083 79.875 55.7292 79.5781 55.4062C79.2812 55.0781 78.8698 54.9141 78.3438 54.9141ZM87.8672 55.2812C87.6172 55.2396 87.3594 55.2188 87.0938 55.2188C86.224 55.2188 85.638 55.5521 85.3359 56.2188V62H83.4375V53.5469H85.25L85.2969 54.4922C85.7552 53.7578 86.3906 53.3906 87.2031 53.3906C87.474 53.3906 87.6979 53.4271 87.875 53.5L87.8672 55.2812ZM93.8828 62C93.7995 61.8385 93.7266 61.5755 93.6641 61.2109C93.0599 61.8411 92.3203 62.1562 91.4453 62.1562C90.5964 62.1562 89.9036 61.9141 89.3672 61.4297C88.8307 60.9453 88.5625 60.3464 88.5625 59.6328C88.5625 58.7318 88.8958 58.0417 89.5625 57.5625C90.2344 57.0781 91.1927 56.8359 92.4375 56.8359H93.6016V56.2812C93.6016 55.8438 93.4792 55.4948 93.2344 55.2344C92.9896 54.9688 92.6172 54.8359 92.1172 54.8359C91.6849 54.8359 91.3307 54.9453 91.0547 55.1641C90.7786 55.3776 90.6406 55.651 90.6406 55.9844H88.7422C88.7422 55.5208 88.8958 55.0885 89.2031 54.6875C89.5104 54.2812 89.9271 53.9635 90.4531 53.7344C90.9844 53.5052 91.5755 53.3906 92.2266 53.3906C93.2161 53.3906 94.0052 53.6406 94.5938 54.1406C95.1823 54.6354 95.4844 55.3333 95.5 56.2344V60.0469C95.5 60.8073 95.6068 61.4141 95.8203 61.8672V62H93.8828ZM91.7969 60.6328C92.1719 60.6328 92.5234 60.5417 92.8516 60.3594C93.1849 60.1771 93.4349 59.9323 93.6016 59.625V58.0312H92.5781C91.875 58.0312 91.3464 58.1536 90.9922 58.3984C90.638 58.6432 90.4609 58.9896 90.4609 59.4375C90.4609 59.8021 90.5807 60.0938 90.8203 60.3125C91.0651 60.526 91.3906 60.6328 91.7969 60.6328ZM99.5078 62H97.6094V50H99.5078V62Z" fill="black"/>
<circle cx="52" cy="21" r="21" fill="#9BCCFA"/>
<path d="M51.5 20.35C50.6949 20.35 49.9227 20.0076 49.3534 19.3981C48.7841 18.7886 48.4643 17.962 48.4643 17.1C48.4643 16.238 48.7841 15.4114 49.3534 14.8019C49.9227 14.1924 50.6949 13.85 51.5 13.85C52.3051 13.85 53.0773 14.1924 53.6466 14.8019C54.2159 15.4114 54.5357 16.238 54.5357 17.1C54.5357 17.5268 54.4572 17.9494 54.3046 18.3437C54.1521 18.738 53.9285 19.0963 53.6466 19.3981C53.3647 19.6999 53.03 19.9393 52.6617 20.1026C52.2934 20.2659 51.8987 20.35 51.5 20.35ZM51.5 8C49.2457 8 47.0837 8.95875 45.4896 10.6653C43.8955 12.3719 43 14.6865 43 17.1C43 23.925 51.5 34 51.5 34C51.5 34 60 23.925 60 17.1C60 14.6865 59.1045 12.3719 57.5104 10.6653C55.9163 8.95875 53.7543 8 51.5 8Z" fill="#246BD7"/>
</svg>