<svg width="574" height="105" viewBox="0 0 574 105" fill="none" xmlns="http://www.w3.org/2000/svg">
<path d="M80.9408 39.3228V36.6852H76.509V20.111H75.3046C75.3046 20.111 75.4421 18.9343 75.3046 18.7939C79.6895 9.91844 70.7083 8.39073 70.7083 8.39073L70.6513 7.51488C70.8493 7.35047 71.0054 7.14173 71.1069 6.90571C71.2085 6.66969 71.2525 6.41308 71.2355 6.15685C71.2185 5.90063 71.1409 5.65204 71.009 5.4314C70.8772 5.21077 70.6948 5.02434 70.4769 4.88735L70.2219 1.11988C70.2219 1.11988 70.2219 0.0100283 69.5945 0.0100283C68.9671 0.0100283 68.9705 0.912617 68.9705 0.912617C68.9705 0.912617 68.8095 2.99191 68.6518 4.92412C68.4548 5.06165 68.2906 5.24056 68.1706 5.44824C68.0506 5.65591 67.9778 5.88729 67.9573 6.12606C67.9368 6.36482 67.9692 6.60515 68.0521 6.8301C68.135 7.05505 68.2664 7.25913 68.4371 7.42796C68.4206 7.70357 68.3892 7.97808 68.3431 8.25032C59.5734 11.0249 63.8207 18.8607 63.8207 18.8607V20.0408H62.4284V36.7554H57.8355V25.0351L59.2278 23.718V21.846C58.7147 21.6842 58.2464 21.4058 57.8598 21.0328C57.4732 20.6597 57.1789 20.2023 57.0001 19.6965H54.8429L53.7291 21.0136H46.3483L45.164 19.7667H43.0067L41.8225 21.154H39.0412L37.8536 19.8402H35.9044L34.5825 21.0905H27.2017L25.947 19.7032H24.0682C23.8656 20.2076 23.5479 20.6581 23.1403 21.019C22.7327 21.3799 22.2463 21.6413 21.7198 21.7825V23.7882L23.1825 25.1053V36.6852H18.5896V20.0441H17.0531V18.707C21.1595 9.97193 12.6682 8.37401 12.6682 8.37401L12.5877 7.41125C12.7527 7.24149 12.8789 7.03816 12.9577 6.81521C13.0364 6.59226 13.0658 6.35497 13.0438 6.11964C13.0218 5.88431 12.9489 5.6565 12.8303 5.45187C12.7116 5.24724 12.5498 5.07062 12.3562 4.93415L12.0207 1.04299C12.0207 1.04299 11.8093 0 11.3933 0C10.9773 0 10.8364 1.04299 10.8364 1.04299C10.8364 1.04299 10.6854 2.9986 10.5311 4.88066C10.2947 5.0277 10.0996 5.2321 9.96406 5.47473C9.82852 5.71736 9.75697 5.99029 9.75611 6.26797C9.7626 6.49861 9.81832 6.72522 9.91955 6.93272C10.0208 7.14023 10.1652 7.32387 10.3432 7.47142C10.327 7.75291 10.2934 8.03312 10.2426 8.3105C1.47281 10.5971 5.57924 18.9209 5.57924 18.9209V20.0976H4.17352V36.8891H0V39.3161L1.73785 40.7034V54.9409H0V57.1606L1.73785 58.6181V68.3794H0V70.8064L1.73785 72.3241V80.3705L0 83.4894V88.5539H80.9408V83.4259L79.2634 80.5142V72.1235L80.9408 70.7362V68.1721H79.2634V58.7384L80.9408 57.2843V54.7169H79.2634V40.6399L80.9408 39.3228ZM78.4482 86.3409H2.57323V83.9808L4.25069 81.4168V39.3896H6.82056V22.675H8.21285V17.8345C7.41438 17.0723 7.08895 16.0059 7.08895 14.8258C7.08895 13.7176 7.53078 12.6547 8.31724 11.8711C9.10371 11.0874 10.1704 10.6472 11.2826 10.6472C12.3948 10.6472 13.4615 11.0874 14.248 11.8711C15.0344 12.6547 15.4763 13.7176 15.4763 14.8258C15.4763 16.0126 15.1911 17.079 14.3926 17.8345V22.6182H15.8721V39.3996H25.6182V24.7577L24.9204 23.3703L26.5207 23.6478H54.1518L55.893 23.0929L55.2656 24.7643V39.3963H64.9949V22.6817H66.4577V17.8345C65.6592 17.0723 65.4277 16.0059 65.4277 14.8258C65.4277 13.7176 65.8695 12.6547 66.656 11.8711C67.4425 11.0874 68.5091 10.6472 69.6213 10.6472C70.7336 10.6472 71.8002 11.0874 72.5867 11.8711C73.3732 12.6547 73.815 13.7176 73.815 14.8258C73.8265 15.3839 73.7239 15.9384 73.5134 16.4557C73.3028 16.9729 72.9888 17.4421 72.5905 17.8345V22.548H74.1203V39.3996H76.6969V81.4168L78.4347 84.051L78.4482 86.3409Z" fill="#2F80ED"/>
<path d="M86.765 69.9105V60.7074H93.2098V62.2953H88.6404V64.3813H92.6462V65.9792H88.6404V69.8971L86.765 69.9105Z" fill="#2F80ED"/>
<path d="M94.5115 69.9105V60.7074H96.4104V69.9105H94.5115Z" fill="#2F80ED"/>
<path d="M97.9906 65.3039C97.9906 63.8197 98.3965 62.6407 99.2084 61.7671C100.096 60.9245 101.275 60.4545 102.501 60.4545C103.727 60.4545 104.906 60.9245 105.794 61.7671C106.608 62.6407 107.016 63.8186 107.019 65.3006C107.021 66.7826 106.613 67.9615 105.794 68.8374C104.907 69.6808 103.728 70.1513 102.501 70.1513C101.275 70.1513 100.096 69.6808 99.2084 68.8374C98.3965 67.9771 97.9906 66.7993 97.9906 65.3039ZM99.9264 65.3039C99.8723 66.144 100.109 66.977 100.597 67.664C100.825 67.9419 101.116 68.1627 101.445 68.3084C101.774 68.4541 102.133 68.5208 102.493 68.5031C102.855 68.5214 103.217 68.455 103.549 68.3093C103.881 68.1636 104.174 67.9427 104.405 67.664C104.85 66.9574 105.086 66.1399 105.086 65.3056C105.086 64.4713 104.85 63.6538 104.405 62.9472C104.163 62.6824 103.868 62.4711 103.539 62.3271C103.21 62.1831 102.854 62.1095 102.494 62.111C102.135 62.1126 101.779 62.1893 101.452 62.3362C101.124 62.4831 100.83 62.697 100.591 62.9639C100.154 63.5155 99.9196 64.301 99.9196 65.3039H99.9264Z" fill="#2F80ED"/>
<path d="M116.563 66.7481C116.548 67.2254 116.432 67.6942 116.223 68.1239C116.014 68.5536 115.716 68.9345 115.349 69.2419C114.529 69.8872 113.504 70.2161 112.46 70.1679C111.094 70.1679 110.031 69.7422 109.273 68.8909C108.515 68.0395 108.136 66.8439 108.136 65.3039C108.136 63.7439 108.523 62.5449 109.297 61.7069C110.071 60.869 111.182 60.4522 112.631 60.4567C113.808 60.4567 114.739 60.7431 115.426 61.3158C115.773 61.6196 116.053 61.9925 116.246 62.4106C116.44 62.8286 116.543 63.2824 116.55 63.7428H114.681C114.634 63.2782 114.405 62.8508 114.044 62.5527C113.636 62.2611 113.14 62.1172 112.638 62.1449C112.279 62.1213 111.92 62.1819 111.589 62.3218C111.258 62.4617 110.965 62.6771 110.733 62.9505C110.296 63.4854 110.078 64.2654 110.078 65.2906C110.078 66.2934 110.296 67.0656 110.729 67.6105C111.134 68.0585 111.689 68.344 112.29 68.4135C112.891 68.483 113.496 68.3319 113.994 67.9883C114.376 67.665 114.63 67.2153 114.708 66.7213L116.563 66.7481Z" fill="#2F80ED"/>
<path d="M118.08 69.9105V60.7074H122.559C123.565 60.7074 124.311 60.9225 124.796 61.3526C125.28 61.7805 125.524 62.4357 125.524 63.3182C125.542 63.8114 125.419 64.2995 125.169 64.7256C124.939 65.0958 124.581 65.3693 124.162 65.4945C124.518 65.5987 124.822 65.8296 125.018 66.143C125.22 66.5676 125.32 67.0335 125.31 67.5036L125.35 68.5934V68.6468C125.35 69.1951 125.481 69.5294 125.706 69.6497V69.9305H123.626C123.55 69.7798 123.498 69.6187 123.471 69.4525C123.432 69.2316 123.41 69.0081 123.404 68.7839L123.381 67.8178C123.405 67.4053 123.286 66.9971 123.045 66.6611C122.748 66.4272 122.371 66.3191 121.995 66.3603H119.982V69.9405L118.08 69.9105ZM119.979 64.7323H122.213C122.592 64.7626 122.97 64.6584 123.28 64.4381C123.401 64.3177 123.493 64.1724 123.551 64.0123C123.609 63.8523 123.631 63.6815 123.615 63.5121C123.627 63.3456 123.603 63.1786 123.545 63.0219C123.487 62.8653 123.397 62.7225 123.28 62.6028C122.997 62.3746 122.636 62.2644 122.273 62.2953H119.952L119.979 64.7323Z" fill="#2F80ED"/>
<path d="M127.192 60.684H129.107V66.4572C129.06 67.0104 129.211 67.5626 129.534 68.015C129.708 68.1893 129.918 68.3235 130.15 68.4084C130.382 68.4932 130.629 68.5267 130.876 68.5064C131.126 68.5284 131.378 68.4962 131.615 68.412C131.852 68.3277 132.068 68.1935 132.248 68.0184C132.573 67.5655 132.725 67.0119 132.677 66.4572V60.684H134.576V66.6611C134.576 67.7911 134.26 68.658 133.627 69.2619C132.992 69.8637 132.08 70.1679 130.889 70.1679C129.698 70.1679 128.772 69.867 128.135 69.2653C127.497 68.6636 127.178 67.7944 127.178 66.6611L127.192 60.684Z" fill="#2F80ED"/>
<path d="M135.73 69.9105V68.3125L140.762 62.3755H135.817V60.7041H143.047V62.2953L138.015 68.2357H142.94V69.9071L135.73 69.9105Z" fill="#2F80ED"/>
<path d="M87.7212 11.8339V1.511H89.7844L92.2369 8.80859C92.4605 9.49055 92.626 9.99978 92.7334 10.3363C92.8519 9.9619 93.0353 9.41032 93.2836 8.68156L95.7629 1.50097H97.6081V11.8339H96.2863V3.19249L93.2668 11.8339H92.0289L89.0329 3.0454V11.8339H87.7212Z" fill="#2F80ED"/>
<path d="M99.6647 2.96851V1.511H100.926V2.96851H99.6647ZM99.6647 11.8339V4.35582H100.926V11.8339H99.6647Z" fill="#2F80ED"/>
<path d="M102.872 11.8339V4.35582H104.019V5.41887C104.273 5.02198 104.628 4.69892 105.047 4.48233C105.467 4.26574 105.936 4.16329 106.408 4.18533C106.835 4.18022 107.259 4.26331 107.653 4.42937C107.99 4.55885 108.285 4.77865 108.505 5.06452C108.701 5.34659 108.836 5.66661 108.901 6.00388C108.959 6.41121 108.983 6.82276 108.971 7.23408V11.8339H107.7V7.28422C107.717 6.89312 107.667 6.50198 107.552 6.12757C107.451 5.86939 107.265 5.65271 107.025 5.51247C106.757 5.35642 106.45 5.27772 106.14 5.28515C105.623 5.27527 105.121 5.45899 104.734 5.79996C104.341 6.13425 104.147 6.80284 104.147 7.74889V11.8339H102.872Z" fill="#2F80ED"/>
<path d="M110.931 2.96851V1.511H112.202V2.96851H110.931ZM110.931 11.8339V4.35582H112.202V11.8339H110.931Z" fill="#2F80ED"/>
<path d="M113.628 9.60086L114.886 9.40363C114.928 9.8491 115.139 10.2617 115.476 10.5569C115.862 10.8453 116.337 10.9885 116.818 10.9614C117.28 10.9971 117.739 10.8706 118.117 10.6037C118.246 10.5062 118.351 10.3805 118.425 10.2362C118.498 10.092 118.537 9.93299 118.539 9.77135C118.541 9.63735 118.507 9.50532 118.442 9.38815C118.376 9.27098 118.282 9.17265 118.167 9.10277C117.752 8.90808 117.315 8.7644 116.865 8.67487C116.203 8.52785 115.554 8.32429 114.926 8.06646C114.59 7.91331 114.305 7.6659 114.108 7.35442C113.922 7.05299 113.825 6.70532 113.829 6.35155C113.825 6.02862 113.904 5.71002 114.057 5.42556C114.207 5.14119 114.42 4.89519 114.681 4.70683C114.93 4.53974 115.204 4.41439 115.493 4.33577C115.85 4.23327 116.219 4.1826 116.59 4.18533C117.118 4.17419 117.644 4.26032 118.14 4.4394C118.526 4.56361 118.869 4.79565 119.127 5.10798C119.361 5.45557 119.512 5.85264 119.566 6.26797L118.321 6.43512C118.282 6.08318 118.106 5.76047 117.832 5.53587C117.498 5.29634 117.092 5.17833 116.681 5.20158C116.245 5.16444 115.808 5.26503 115.433 5.48907C115.321 5.56278 115.229 5.66186 115.164 5.77813C115.099 5.89439 115.062 6.02449 115.057 6.15766C115.055 6.31817 115.11 6.47425 115.211 6.59892C115.341 6.75271 115.51 6.8683 115.701 6.93321C115.829 6.98001 116.201 7.09033 116.825 7.26751C117.465 7.43379 118.094 7.64035 118.707 7.88595C119.044 8.02551 119.335 8.2573 119.546 8.55453C119.757 8.87698 119.862 9.25646 119.848 9.64098C119.846 10.0664 119.718 10.4817 119.479 10.8344C119.213 11.2207 118.84 11.5215 118.405 11.7002C117.906 11.9101 117.367 12.0137 116.825 12.0044C115.848 12.0044 115.104 11.8027 114.594 11.3994C114.058 10.9407 113.714 10.2994 113.628 9.60086Z" fill="#2F80ED"/>
<path d="M124.152 10.7007L124.333 11.8206C124.018 11.8895 123.697 11.9264 123.374 11.9309C123.003 11.9502 122.634 11.8754 122.3 11.7136C122.063 11.5855 121.875 11.3836 121.764 11.1386C121.627 10.6528 121.574 10.1477 121.606 9.64432V5.34198H120.673V4.33911H121.606V2.50385L122.871 1.74166V4.35582H124.152V5.3587H122.871V9.71452C122.856 9.94837 122.879 10.183 122.938 10.4098C122.984 10.5132 123.061 10.5997 123.159 10.6572C123.293 10.7249 123.442 10.756 123.592 10.7475C123.78 10.7433 123.967 10.7276 124.152 10.7007Z" fill="#2F80ED"/>
<path d="M130.533 9.42369L131.848 9.58749C131.677 10.2946 131.271 10.9228 130.694 11.3693C130.068 11.8108 129.313 12.033 128.547 12.0011C128.066 12.0265 127.584 11.9504 127.135 11.7775C126.685 11.6047 126.277 11.3391 125.937 10.9982C125.293 10.3296 124.971 9.38469 124.971 8.16341C124.971 6.90647 125.296 5.93034 125.947 5.23501C126.269 4.89063 126.662 4.61927 127.098 4.43931C127.535 4.25935 128.005 4.17502 128.477 4.19202C128.936 4.17693 129.394 4.26046 129.818 4.43695C130.242 4.61345 130.624 4.87877 130.936 5.21495C131.57 5.88354 131.889 6.85298 131.889 8.08652C131.889 8.16006 131.889 8.27372 131.889 8.42081H126.286C126.283 9.11356 126.531 9.78417 126.984 10.3096C127.184 10.5248 127.427 10.6957 127.697 10.8109C127.968 10.9261 128.26 10.9831 128.554 10.9781C128.982 10.9898 129.402 10.8606 129.748 10.6104C130.122 10.3007 130.395 9.88778 130.533 9.42369ZM126.356 7.37448H130.547C130.532 6.866 130.365 6.37356 130.067 5.96042C129.879 5.72545 129.638 5.53709 129.365 5.41009C129.091 5.28308 128.792 5.22087 128.49 5.22832C128.219 5.21966 127.948 5.26584 127.695 5.36408C127.442 5.46232 127.211 5.61059 127.017 5.79996C126.602 6.22033 126.365 6.78439 126.356 7.37448ZM127.725 3.42649L128.668 1.45417H130.345L128.772 3.42649H127.725Z" fill="#2F80ED"/>
<path d="M133.429 11.8339V4.35582H134.576V5.48907C134.766 5.08504 135.042 4.72691 135.385 4.4394C135.623 4.2725 135.908 4.18371 136.2 4.18533C136.666 4.19693 137.119 4.33821 137.508 4.59317L137.069 5.76988C136.789 5.59552 136.466 5.50074 136.136 5.49576C135.865 5.49322 135.602 5.58154 135.388 5.74648C135.161 5.9217 134.995 6.16389 134.915 6.43846C134.768 6.91842 134.696 7.41775 134.7 7.91937V11.8339H133.429Z" fill="#2F80ED"/>
<path d="M138.27 2.96851V1.511H139.541V2.96851H138.27ZM138.27 11.8339V4.35582H139.541V11.8339H138.27Z" fill="#2F80ED"/>
<path d="M141.004 8.09321C141.004 6.70924 141.391 5.68408 142.165 5.01772C142.818 4.46132 143.654 4.16489 144.513 4.18533C144.982 4.16706 145.449 4.24687 145.885 4.41961C146.32 4.59234 146.715 4.85417 147.043 5.18821C147.714 5.85679 148.026 6.79281 148.026 7.98289C148.063 8.76291 147.915 9.54064 147.593 10.2527C147.31 10.7969 146.869 11.244 146.328 11.5364C145.782 11.8412 145.166 12.0011 144.54 12.0011C144.069 12.0217 143.598 11.9431 143.16 11.7703C142.721 11.5975 142.324 11.3344 141.994 10.9982C141.336 10.3252 141.006 9.35683 141.004 8.09321ZM142.312 8.09321C142.312 9.05262 142.524 9.76467 142.943 10.246C143.139 10.4713 143.382 10.6519 143.654 10.7757C143.926 10.8995 144.222 10.9636 144.522 10.9636C144.821 10.9636 145.117 10.8995 145.389 10.7757C145.661 10.6519 145.904 10.4713 146.1 10.246C146.521 9.76467 146.731 9.03479 146.731 8.05643C146.731 7.12933 146.52 6.42843 146.097 5.95374C145.9 5.72954 145.658 5.54984 145.386 5.42671C145.114 5.30359 144.819 5.23988 144.52 5.23988C144.221 5.23988 143.926 5.30359 143.654 5.42671C143.382 5.54984 143.14 5.72954 142.943 5.95374C142.525 6.42397 142.315 7.13713 142.312 8.09321Z" fill="#2F80ED"/>
<path d="M158.419 11.8339V10.8879C158.201 11.243 157.89 11.5333 157.521 11.729C157.152 11.9247 156.737 12.0187 156.319 12.0011C155.732 12.004 155.158 11.833 154.669 11.5097C154.16 11.1728 153.757 10.7002 153.504 10.1458C153.216 9.50741 153.074 8.81313 153.088 8.11326C153.08 7.41899 153.208 6.72978 153.464 6.08411C153.684 5.50509 154.084 5.01099 154.605 4.6734C155.104 4.34952 155.687 4.17971 156.282 4.18533C156.702 4.17866 157.117 4.27631 157.49 4.46948C157.832 4.64817 158.127 4.90335 158.352 5.21495V1.511H159.617V11.8339H158.419ZM154.394 8.09989C154.394 9.06042 154.596 9.77692 155.001 10.2494C155.17 10.4688 155.388 10.647 155.636 10.7703C155.885 10.8937 156.159 10.959 156.437 10.9614C156.708 10.9636 156.976 10.9046 157.221 10.7888C157.467 10.6731 157.682 10.5035 157.852 10.2928C158.242 9.84713 158.436 9.15625 158.436 8.22024C158.436 7.1973 158.238 6.44626 157.842 5.96711C157.671 5.74268 157.45 5.56095 157.196 5.43624C156.942 5.31152 156.663 5.24721 156.38 5.24838C156.106 5.24578 155.836 5.30665 155.59 5.42618C155.344 5.54571 155.13 5.72061 154.964 5.93702C154.588 6.38943 154.399 7.11039 154.397 8.09989H154.394Z" fill="#2F80ED"/>
<path d="M166.495 10.9113C166.092 11.2663 165.633 11.5522 165.136 11.757C164.687 11.9223 164.212 12.005 163.734 12.0011C163.046 12.0468 162.367 11.8319 161.831 11.3994C161.614 11.2075 161.441 10.9703 161.325 10.7047C161.209 10.439 161.153 10.1512 161.16 9.86161C161.161 9.52204 161.245 9.18773 161.404 8.8877C161.564 8.58768 161.795 8.33102 162.076 8.14001C162.356 7.94825 162.665 7.80472 162.992 7.71546C163.365 7.62751 163.742 7.56386 164.123 7.52491C164.893 7.45418 165.653 7.30748 166.394 7.08699C166.394 6.91316 166.394 6.80284 166.394 6.7527C166.415 6.55581 166.394 6.35674 166.331 6.16881C166.269 5.98087 166.167 5.80839 166.032 5.6629C165.618 5.34707 165.102 5.19362 164.582 5.23167C164.113 5.19309 163.643 5.30306 163.24 5.5459C162.909 5.83302 162.686 6.22478 162.61 6.65575L161.365 6.48526C161.449 6.01964 161.641 5.58001 161.925 5.20158C162.227 4.85236 162.623 4.5961 163.066 4.4628C163.615 4.27885 164.191 4.18954 164.77 4.19871C165.301 4.18234 165.83 4.25929 166.334 4.42602C166.672 4.53533 166.976 4.72996 167.216 4.99098C167.415 5.2428 167.551 5.53856 167.612 5.85345C167.666 6.24101 167.687 6.63238 167.676 7.02347V8.71165C167.656 9.45806 167.683 10.205 167.756 10.9481C167.815 11.2649 167.929 11.5691 168.092 11.8473H166.75C166.609 11.5531 166.523 11.236 166.495 10.9113ZM166.391 8.07983C165.718 8.31764 165.02 8.47803 164.311 8.55787C163.933 8.59903 163.561 8.6843 163.204 8.81193C162.998 8.8953 162.823 9.03863 162.7 9.22311C162.554 9.44897 162.495 9.71964 162.533 9.9855C162.572 10.2514 162.705 10.4946 162.908 10.6706C163.23 10.9159 163.631 11.0348 164.036 11.0049C164.493 11.009 164.945 10.8938 165.344 10.6706C165.71 10.4744 166.003 10.1677 166.183 9.79475C166.342 9.39206 166.413 8.96006 166.391 8.52779V8.07983Z" fill="#2F80ED"/>
<path d="M173.366 8.51776L174.657 8.4041C174.697 8.85511 174.843 9.29041 175.083 9.67441C175.347 10.0356 175.709 10.314 176.127 10.4767C176.63 10.6874 177.171 10.7922 177.717 10.7843C178.189 10.7937 178.66 10.7143 179.103 10.5503C179.456 10.4304 179.766 10.2095 179.995 9.9151C180.187 9.65969 180.291 9.34866 180.29 9.02922C180.296 8.72349 180.197 8.42498 180.008 8.18347C179.757 7.89943 179.434 7.6881 179.072 7.57171C178.467 7.373 177.853 7.20563 177.23 7.07027C176.537 6.93139 175.862 6.71495 175.218 6.42509C174.769 6.20938 174.387 5.87813 174.11 5.46567C173.867 5.08039 173.74 4.63369 173.745 4.17865C173.746 3.65854 173.901 3.15034 174.191 2.71779C174.509 2.24902 174.963 1.88852 175.493 1.68483C176.097 1.45032 176.743 1.33673 177.392 1.35054C178.088 1.33076 178.782 1.45128 179.431 1.70489C179.979 1.92312 180.447 2.30202 180.773 2.79134C181.091 3.27656 181.268 3.84012 181.283 4.41934L179.968 4.51628C179.954 4.23465 179.883 3.95874 179.76 3.70492C179.636 3.45111 179.463 3.22456 179.25 3.03871C178.725 2.66832 178.087 2.49108 177.445 2.53728C176.617 2.53728 176.013 2.69105 175.634 2.99191C175.459 3.11727 175.316 3.28185 175.217 3.47233C175.118 3.66281 175.065 3.87385 175.063 4.08839C175.059 4.26116 175.092 4.43279 175.162 4.5911C175.232 4.74941 175.335 4.8905 175.466 5.00435C175.731 5.2417 176.419 5.48907 177.536 5.73979C178.318 5.89366 179.085 6.11742 179.827 6.40837C180.365 6.62628 180.83 6.99133 181.169 7.46139C181.46 7.89503 181.612 8.40719 181.602 8.92894C181.604 9.48007 181.443 10.0196 181.139 10.4801C180.8 10.9785 180.323 11.3685 179.767 11.6033C179.139 11.8814 178.458 12.0194 177.771 12.0078C176.968 12.032 176.169 11.8933 175.422 11.5999C174.813 11.3482 174.293 10.921 173.929 10.3731C173.569 9.82023 173.374 9.17688 173.366 8.51776Z" fill="#2F80ED"/>
<path d="M188.218 10.9113C187.815 11.2663 187.356 11.5522 186.859 11.757C186.41 11.9223 185.935 12.005 185.457 12.0011C184.769 12.0468 184.09 11.8319 183.555 11.3994C183.337 11.2075 183.164 10.9703 183.048 10.7047C182.932 10.439 182.876 10.1512 182.884 9.86161C182.883 9.52264 182.966 9.18871 183.124 8.88873C183.283 8.58876 183.512 8.33177 183.793 8.14001C184.072 7.95211 184.38 7.81201 184.705 7.72548C185.078 7.63754 185.455 7.57388 185.836 7.53494C186.606 7.46421 187.366 7.31751 188.107 7.09702C188.107 6.92319 188.107 6.81287 188.107 6.76272C188.128 6.56584 188.107 6.36677 188.044 6.17883C187.982 5.99089 187.88 5.81841 187.745 5.67293C187.331 5.3571 186.815 5.20365 186.295 5.2417C185.826 5.20312 185.357 5.31308 184.954 5.55593C184.622 5.84305 184.399 6.23481 184.323 6.66578L183.122 6.48861C183.205 6.02299 183.397 5.58335 183.682 5.20492C183.977 4.85814 184.364 4.60099 184.799 4.4628C185.348 4.27885 185.924 4.18954 186.503 4.19871C187.034 4.18234 187.563 4.25929 188.067 4.42602C188.405 4.53533 188.709 4.72996 188.949 4.99098C189.148 5.2428 189.284 5.53856 189.345 5.85345C189.399 6.24101 189.42 6.63238 189.409 7.02347V8.71165C189.389 9.45806 189.416 10.205 189.489 10.9481C189.548 11.2649 189.662 11.5691 189.825 11.8473H188.483C188.339 11.5538 188.249 11.2367 188.218 10.9113ZM188.114 8.07983C187.441 8.31764 186.743 8.47803 186.034 8.55787C185.656 8.59903 185.284 8.6843 184.927 8.81193C184.721 8.8953 184.546 9.03863 184.423 9.22311C184.278 9.44897 184.218 9.71964 184.257 9.9855C184.295 10.2514 184.428 10.4946 184.631 10.6706C184.953 10.9159 185.355 11.0348 185.759 11.0049C186.217 11.009 186.668 10.8938 187.067 10.6706C187.433 10.4744 187.726 10.1677 187.906 9.79475C188.065 9.39206 188.136 8.96006 188.114 8.52779V8.07983Z" fill="#2F80ED"/>
<path d="M196.29 11.8339V10.7341C196.036 11.1315 195.683 11.4569 195.266 11.6788C194.848 11.9007 194.381 12.0117 193.908 12.0011C193.481 12.0048 193.058 11.9182 192.666 11.747C192.33 11.6137 192.035 11.3947 191.811 11.1119C191.615 10.8297 191.482 10.5096 191.418 10.1725C191.357 9.78113 191.331 9.38508 191.341 8.98911V4.35582H192.613V8.50104C192.599 8.94816 192.625 9.39562 192.69 9.83821C192.755 10.152 192.931 10.4319 193.186 10.6271C193.468 10.8226 193.806 10.9222 194.149 10.9113C194.527 10.9123 194.899 10.8106 195.223 10.6171C195.549 10.4392 195.804 10.1547 195.944 9.81147C196.107 9.34216 196.178 8.84649 196.156 8.35061V4.33911H197.427V11.8339H196.29ZM193.606 3.42649L194.549 1.45417H196.226L194.669 3.42649H193.606Z" fill="#2F80ED"/>
<path d="M204.288 11.8339V10.8879C204.069 11.243 203.759 11.5333 203.39 11.729C203.021 11.9247 202.606 12.0187 202.188 12.0011C201.602 12.0046 201.028 11.8334 200.54 11.5097C200.03 11.1738 199.625 10.701 199.373 10.1458C199.087 9.50664 198.947 8.81273 198.96 8.11326C198.951 7.41921 199.078 6.73001 199.333 6.08411C199.552 5.51305 199.945 5.02452 200.457 4.68677C200.955 4.36289 201.539 4.19309 202.134 4.19871C202.537 4.19084 202.936 4.28041 203.296 4.45973C203.657 4.63905 203.968 4.90278 204.204 5.22832V1.511H205.469V11.8339H204.288ZM200.262 8.09989C200.262 9.06042 200.466 9.77692 200.873 10.2494C201.041 10.4687 201.258 10.6469 201.506 10.7703C201.755 10.8937 202.028 10.959 202.305 10.9614C202.577 10.9639 202.846 10.905 203.092 10.7892C203.337 10.6735 203.554 10.5038 203.724 10.2928C204.111 9.84713 204.305 9.15625 204.305 8.22024C204.305 7.1973 204.107 6.44626 203.711 5.96711C203.541 5.73977 203.319 5.5552 203.065 5.4281C202.81 5.301 202.529 5.23488 202.245 5.23501C201.971 5.23293 201.701 5.29403 201.456 5.41352C201.21 5.533 200.996 5.70762 200.829 5.92365C200.456 6.38497 200.268 7.11039 200.265 8.09989H200.262Z" fill="#2F80ED"/>
<path d="M212.605 9.42369L213.92 9.58749C213.75 10.2942 213.344 10.9225 212.769 11.3693C212.146 11.808 211.395 12.03 210.632 12.0011C210.151 12.0263 209.669 11.9501 209.22 11.7772C208.77 11.6044 208.362 11.339 208.022 10.9982C207.378 10.3296 207.059 9.38023 207.059 8.16341C207.059 6.94659 207.395 5.93034 208.032 5.23501C208.354 4.89098 208.747 4.61985 209.183 4.43992C209.62 4.26 210.09 4.17546 210.562 4.19202C211.021 4.17671 211.479 4.26014 211.903 4.43665C212.327 4.61315 212.709 4.8786 213.021 5.21495C213.658 5.88354 213.977 6.85298 213.977 8.08652C213.977 8.16006 213.977 8.27372 213.977 8.42081H208.357C208.355 9.11399 208.604 9.78465 209.059 10.3096C209.258 10.5244 209.501 10.695 209.771 10.8102C210.04 10.9254 210.332 10.9826 210.625 10.9781C211.053 10.9903 211.473 10.861 211.82 10.6104C212.195 10.3026 212.469 9.88899 212.605 9.42369ZM208.428 7.37448H212.618C212.606 6.86545 212.439 6.37211 212.138 5.96042C211.95 5.72506 211.71 5.53642 211.437 5.40938C211.163 5.28233 210.863 5.22035 210.562 5.22832C210.29 5.21966 210.02 5.26584 209.767 5.36408C209.513 5.46232 209.283 5.61059 209.089 5.79996C208.676 6.22206 208.439 6.78503 208.428 7.37448Z" fill="#2F80ED"/>
<path d="M87.6205 104.837V96.3663H93.3574V97.3692H88.7478V99.9934H92.7368V100.996H88.7478V104.844L87.6205 104.837Z" fill="#2F80ED"/>
<path d="M94.6893 97.5631V96.3663H95.7327V97.5631H94.6893ZM94.6893 104.837V98.703H95.7327V104.837H94.6893Z" fill="#2F80ED"/>
<path d="M96.9338 101.768C96.9338 100.632 97.2525 99.7928 97.8866 99.2446C98.4268 98.791 99.1163 98.5529 99.8223 98.576C100.207 98.5625 100.59 98.629 100.948 98.7712C101.305 98.9133 101.629 99.128 101.899 99.4017C102.178 99.7116 102.393 100.073 102.531 100.466C102.67 100.859 102.728 101.276 102.704 101.692C102.734 102.333 102.612 102.971 102.349 103.557C102.115 104.004 101.753 104.371 101.309 104.61C100.854 104.86 100.342 104.989 99.8223 104.984C99.4353 105.001 99.0492 104.935 98.6891 104.793C98.329 104.651 98.003 104.435 97.7322 104.159C97.1988 103.6 96.9338 102.805 96.9338 101.768ZM98.0073 101.768C97.9588 102.4 98.1424 103.027 98.524 103.534C98.6846 103.719 98.8834 103.868 99.1069 103.969C99.3304 104.071 99.5732 104.124 99.819 104.124C100.065 104.124 100.308 104.071 100.531 103.969C100.755 103.868 100.953 103.719 101.114 103.534C101.458 103.144 101.631 102.545 101.631 101.738C101.675 101.119 101.49 100.506 101.111 100.013C100.949 99.8301 100.75 99.6833 100.527 99.5826C100.304 99.482 100.062 99.43 99.8173 99.43C99.5725 99.43 99.3305 99.482 99.1075 99.5826C98.8844 99.6833 98.6855 99.8301 98.524 100.013C98.1434 100.516 97.9597 101.14 98.0073 101.768Z" fill="#2F80ED"/>
<path d="M107.945 102.591L108.971 102.721C108.898 103.364 108.591 103.959 108.109 104.393C107.636 104.795 107.03 105.007 106.408 104.988C106.03 105.003 105.653 104.938 105.302 104.796C104.951 104.654 104.635 104.439 104.375 104.165C103.865 103.617 103.607 102.828 103.607 101.805C103.595 101.209 103.709 100.617 103.942 100.067C104.143 99.5928 104.497 99.1996 104.949 98.9504C105.397 98.7004 105.904 98.5713 106.418 98.576C107.007 98.5505 107.587 98.7288 108.059 99.0808C108.499 99.4436 108.791 99.9552 108.877 100.518L107.871 100.672C107.806 100.315 107.625 99.9887 107.358 99.7427C107.109 99.5354 106.793 99.4249 106.468 99.4318C106.226 99.424 105.985 99.4704 105.764 99.5676C105.542 99.6647 105.345 99.8103 105.187 99.9934C104.851 100.371 104.694 100.963 104.694 101.779C104.694 102.594 104.851 103.199 105.17 103.574C105.32 103.756 105.51 103.901 105.725 103.998C105.94 104.095 106.175 104.142 106.411 104.135C106.79 104.146 107.158 104.011 107.438 103.758C107.738 103.439 107.917 103.027 107.945 102.591Z" fill="#2F80ED"/>
<path d="M109.854 104.837V98.703H110.793V99.6324C110.951 99.2997 111.18 99.0054 111.464 98.7699C111.661 98.6336 111.895 98.5612 112.135 98.5626C112.517 98.5701 112.89 98.6861 113.208 98.8969L112.85 99.863C112.62 99.7203 112.355 99.6429 112.085 99.639C111.863 99.6363 111.646 99.7081 111.471 99.843C111.283 99.9855 111.146 100.185 111.081 100.411C110.961 100.804 110.902 101.214 110.907 101.625V104.837H109.854Z" fill="#2F80ED"/>
<path d="M117.855 104.837V103.935C117.647 104.261 117.357 104.529 117.014 104.711C116.672 104.893 116.287 104.984 115.899 104.974C115.553 104.977 115.21 104.906 114.893 104.767C114.616 104.66 114.374 104.479 114.191 104.246C114.024 104.016 113.909 103.752 113.856 103.473C113.804 103.153 113.783 102.828 113.792 102.504V98.703H114.836V102.103C114.823 102.471 114.844 102.839 114.899 103.203C114.956 103.461 115.105 103.691 115.319 103.848C115.549 104.009 115.826 104.091 116.107 104.082C116.417 104.082 116.72 103.999 116.986 103.841C117.248 103.695 117.454 103.465 117.57 103.189C117.701 102.803 117.759 102.396 117.741 101.989V98.703H118.784V104.837H117.855Z" fill="#2F80ED"/>
<path d="M119.871 104.837V103.995L123.793 99.5087C123.347 99.5321 122.955 99.5454 122.616 99.5454H120.103V98.703H125.135V99.3716L121.8 103.266L121.156 103.978C121.623 103.941 122.062 103.925 122.471 103.925H125.32V104.821L119.871 104.837Z" fill="#2F80ED"/>
<path d="M129.758 104.837V96.3663H131.456L133.469 102.364C133.657 102.922 133.804 103.34 133.875 103.617C133.972 103.31 134.123 102.858 134.328 102.26L136.364 96.3663H137.877V104.837H136.794V97.7469L134.324 104.837H133.318L130.859 97.6266V104.837H129.758Z" fill="#2F80ED"/>
<path d="M143.571 104.082C143.241 104.375 142.863 104.609 142.453 104.774C142.085 104.909 141.695 104.977 141.303 104.974C140.739 105.012 140.182 104.836 139.743 104.483C139.566 104.324 139.425 104.129 139.331 103.911C139.237 103.692 139.192 103.457 139.199 103.219C139.197 102.94 139.264 102.664 139.393 102.416C139.523 102.169 139.712 101.956 139.944 101.799C140.174 101.647 140.428 101.534 140.695 101.464C141 101.393 141.31 101.34 141.621 101.307C142.252 101.25 142.876 101.131 143.483 100.949C143.483 100.806 143.483 100.715 143.483 100.679C143.5 100.517 143.482 100.353 143.431 100.199C143.379 100.044 143.295 99.9025 143.185 99.7828C142.845 99.525 142.423 99.4001 141.997 99.4318C141.617 99.4032 141.238 99.492 140.91 99.6858C140.638 99.9224 140.454 100.244 140.39 100.598L139.384 100.458C139.452 100.075 139.61 99.7135 139.843 99.4017C140.086 99.1133 140.406 98.899 140.766 98.7832C141.215 98.631 141.687 98.5575 142.161 98.566C142.596 98.5515 143.03 98.6138 143.443 98.7498C143.72 98.8407 143.97 99.0006 144.168 99.2145C144.334 99.4209 144.449 99.6638 144.503 99.9232C144.545 100.241 144.562 100.562 144.554 100.883V102.27C144.538 102.882 144.56 103.495 144.621 104.105C144.668 104.363 144.758 104.612 144.886 104.841H143.795C143.675 104.603 143.599 104.346 143.571 104.082ZM143.483 101.758C142.932 101.953 142.36 102.085 141.779 102.15C141.468 102.184 141.161 102.255 140.866 102.36C140.699 102.428 140.556 102.544 140.457 102.694C140.361 102.84 140.311 103.011 140.313 103.186C140.31 103.318 140.337 103.449 140.392 103.569C140.446 103.689 140.527 103.796 140.628 103.881C140.891 104.084 141.219 104.183 141.551 104.159C141.926 104.166 142.296 104.075 142.624 103.895C142.925 103.733 143.166 103.482 143.316 103.176C143.444 102.845 143.501 102.491 143.483 102.136V101.758Z" fill="#2F80ED"/>
<path d="M148.435 103.908L148.586 104.827C148.327 104.883 148.063 104.914 147.798 104.918C147.493 104.933 147.19 104.872 146.915 104.74C146.721 104.636 146.566 104.47 146.476 104.269C146.364 103.869 146.321 103.453 146.348 103.039V99.5087H145.583V98.703H146.348V97.182L147.385 96.5569V98.703H148.435V99.5087H147.385V103.099C147.374 103.291 147.392 103.484 147.439 103.671C147.476 103.755 147.54 103.825 147.62 103.871C147.729 103.928 147.852 103.955 147.976 103.948C148.129 103.945 148.283 103.932 148.435 103.908Z" fill="#2F80ED"/>
<path d="M149.066 101.768C149.066 100.632 149.385 99.7928 150.019 99.2446C150.559 98.7916 151.249 98.5535 151.954 98.576C152.339 98.5628 152.723 98.6297 153.081 98.7724C153.438 98.9152 153.762 99.1306 154.031 99.405C154.31 99.7149 154.525 100.077 154.663 100.47C154.802 100.863 154.86 101.279 154.836 101.695C154.866 102.336 154.744 102.975 154.481 103.56C154.248 104.007 153.885 104.374 153.441 104.613C152.986 104.863 152.474 104.992 151.954 104.988C151.567 105.004 151.181 104.939 150.821 104.796C150.461 104.654 150.135 104.438 149.864 104.162C149.334 103.6 149.066 102.805 149.066 101.768ZM150.139 101.768C150.091 102.4 150.275 103.027 150.656 103.534C150.817 103.719 151.016 103.868 151.239 103.969C151.462 104.071 151.705 104.124 151.951 104.124C152.197 104.124 152.44 104.071 152.663 103.969C152.887 103.868 153.086 103.719 153.246 103.534C153.593 103.144 153.765 102.545 153.763 101.738C153.808 101.12 153.624 100.506 153.246 100.013C153.084 99.83 152.885 99.6831 152.662 99.5825C152.438 99.4819 152.196 99.4298 151.951 99.4298C151.706 99.4298 151.464 99.4819 151.24 99.5825C151.017 99.6831 150.818 99.83 150.656 100.013C150.276 100.516 150.092 101.14 150.139 101.768Z" fill="#2F80ED"/>
<path d="M163.469 101.514V100.512H167.072V103.654C166.558 104.076 165.981 104.415 165.361 104.657C164.783 104.877 164.171 104.99 163.552 104.991C162.761 105.002 161.978 104.818 161.274 104.456C160.608 104.118 160.068 103.577 159.731 102.912C159.376 102.212 159.197 101.436 159.208 100.652C159.203 99.8537 159.381 99.0648 159.728 98.3453C160.038 97.6667 160.562 97.1078 161.221 96.7541C161.913 96.3958 162.685 96.2164 163.465 96.2326C164.038 96.2241 164.608 96.3251 165.143 96.5301C165.599 96.6988 166.001 96.9849 166.31 97.3592C166.62 97.7715 166.84 98.2442 166.954 98.7465L165.948 99.0239C165.852 98.6636 165.69 98.3237 165.471 98.0211C165.259 97.7562 164.98 97.5521 164.663 97.4294C164.291 97.2758 163.891 97.1996 163.489 97.2054C163.03 97.1931 162.574 97.2727 162.147 97.4394C161.802 97.5752 161.491 97.7852 161.238 98.0545C161.014 98.3024 160.833 98.586 160.704 98.8936C160.48 99.4328 160.366 100.011 160.369 100.595C160.347 101.249 160.481 101.898 160.758 102.491C161.003 102.983 161.404 103.381 161.898 103.624C162.392 103.87 162.937 103.997 163.489 103.995C163.978 103.994 164.462 103.899 164.915 103.714C165.296 103.574 165.652 103.372 165.968 103.116V101.538L163.469 101.514Z" fill="#2F80ED"/>
<path d="M168.585 104.837V98.703H169.524V99.6324C169.682 99.2997 169.911 99.0054 170.195 98.7699C170.392 98.6336 170.626 98.5612 170.866 98.5626C171.249 98.5701 171.621 98.6861 171.94 98.8969L171.581 99.863C171.351 99.7203 171.087 99.6429 170.816 99.639C170.594 99.6363 170.378 99.7081 170.202 99.843C170.014 99.9855 169.877 100.185 169.813 100.411C169.693 100.804 169.634 101.214 169.638 101.625V104.837H168.585Z" fill="#2F80ED"/>
<path d="M172.161 101.768C172.161 100.632 172.48 99.7928 173.114 99.2446C173.654 98.791 174.344 98.5529 175.05 98.576C175.435 98.563 175.818 98.63 176.176 98.7727C176.533 98.9154 176.857 99.1308 177.126 99.405C177.406 99.7149 177.621 100.077 177.759 100.47C177.897 100.863 177.956 101.279 177.932 101.695C177.962 102.336 177.839 102.976 177.573 103.56C177.341 104.007 176.98 104.374 176.536 104.613C176.081 104.863 175.569 104.992 175.05 104.988C174.663 105.004 174.277 104.939 173.917 104.796C173.556 104.654 173.23 104.438 172.96 104.162C172.426 103.6 172.161 102.805 172.161 101.768ZM173.235 101.768C173.186 102.4 173.37 103.027 173.751 103.534C173.912 103.719 174.111 103.868 174.334 103.969C174.558 104.071 174.801 104.124 175.046 104.124C175.292 104.124 175.535 104.071 175.759 103.969C175.982 103.868 176.181 103.719 176.341 103.534C176.688 103.144 176.86 102.545 176.858 101.738C176.902 101.119 176.717 100.506 176.338 100.013C176.177 99.8301 175.978 99.6833 175.755 99.5826C175.532 99.482 175.29 99.43 175.045 99.43C174.8 99.43 174.558 99.482 174.335 99.5826C174.112 99.6833 173.913 99.8301 173.751 100.013C173.371 100.516 173.187 101.14 173.235 101.768Z" fill="#2F80ED"/>
<path d="M178.737 103.005L179.77 102.845C179.803 103.21 179.976 103.549 180.253 103.791C180.572 104.03 180.965 104.149 181.364 104.125C181.743 104.156 182.121 104.051 182.431 103.831C182.533 103.751 182.616 103.65 182.674 103.534C182.732 103.419 182.763 103.292 182.766 103.162C182.769 103.051 182.741 102.941 182.687 102.843C182.633 102.746 182.554 102.664 182.457 102.608C182.118 102.446 181.76 102.327 181.391 102.253C180.847 102.134 180.315 101.967 179.8 101.755C179.523 101.631 179.29 101.427 179.129 101.17C178.978 100.923 178.899 100.638 178.901 100.348C178.899 100.083 178.964 99.8222 179.089 99.5889C179.211 99.357 179.387 99.1576 179.602 99.0072C179.807 98.8675 180.034 98.7645 180.273 98.703C180.567 98.618 180.871 98.5763 181.176 98.5793C181.609 98.5716 182.04 98.6418 182.447 98.7866C182.766 98.8932 183.047 99.0894 183.256 99.3515C183.449 99.6352 183.572 99.9606 183.615 100.301L182.608 100.441C182.576 100.151 182.432 99.8848 182.206 99.6992C181.931 99.5066 181.598 99.4134 181.263 99.4351C180.904 99.4023 180.544 99.4855 180.236 99.6725C180.144 99.7326 180.067 99.8148 180.014 99.9116C179.96 100.008 179.932 100.117 179.931 100.227C179.929 100.359 179.975 100.487 180.059 100.588C180.163 100.717 180.301 100.813 180.458 100.866C180.562 100.906 180.867 100.993 181.381 101.133C181.904 101.262 182.42 101.423 182.924 101.615C183.194 101.732 183.427 101.922 183.595 102.163C183.769 102.426 183.856 102.737 183.843 103.052C183.842 103.401 183.737 103.742 183.541 104.032C183.323 104.348 183.018 104.594 182.662 104.74C182.252 104.913 181.809 104.998 181.364 104.991C180.715 105.036 180.07 104.861 179.532 104.496C179.088 104.117 178.804 103.584 178.737 103.005Z" fill="#2F80ED"/>
<path d="M184.675 103.005L185.705 102.845C185.741 103.21 185.915 103.548 186.191 103.791C186.51 104.03 186.904 104.149 187.302 104.125C187.681 104.156 188.059 104.051 188.369 103.831C188.471 103.752 188.555 103.65 188.613 103.535C188.671 103.419 188.702 103.292 188.704 103.162C188.708 103.051 188.681 102.941 188.627 102.844C188.574 102.746 188.495 102.665 188.399 102.608C188.059 102.446 187.701 102.327 187.332 102.253C186.787 102.133 186.254 101.967 185.739 101.755C185.467 101.634 185.237 101.436 185.078 101.186C184.918 100.935 184.835 100.644 184.839 100.348C184.836 100.083 184.901 99.8217 185.027 99.5889C185.15 99.3571 185.326 99.1576 185.541 99.0072C185.745 98.8675 185.972 98.7645 186.212 98.703C186.504 98.6182 186.807 98.5766 187.111 98.5793C187.545 98.5716 187.977 98.6418 188.386 98.7866C188.704 98.8932 188.985 99.0894 189.194 99.3515C189.386 99.6359 189.509 99.961 189.553 100.301L188.547 100.441C188.515 100.151 188.37 99.8848 188.144 99.6992C187.869 99.5071 187.537 99.414 187.201 99.4351C186.842 99.4023 186.482 99.4855 186.175 99.6725C186.082 99.7335 186.006 99.8158 185.952 99.9124C185.899 100.009 185.869 100.117 185.866 100.227C185.866 100.359 185.911 100.486 185.994 100.588C186.099 100.717 186.238 100.813 186.396 100.866C186.5 100.906 186.805 100.993 187.315 101.133C187.84 101.263 188.357 101.423 188.862 101.615C189.133 101.732 189.365 101.922 189.533 102.163C189.706 102.427 189.792 102.737 189.781 103.052C189.78 103.402 189.674 103.743 189.476 104.032C189.26 104.348 188.956 104.595 188.6 104.74C188.189 104.913 187.745 104.998 187.299 104.991C186.651 105.035 186.007 104.861 185.47 104.496C185.025 104.118 184.741 103.585 184.675 103.005Z" fill="#2F80ED"/>
<path d="M190.64 101.768C190.64 100.632 190.976 99.7928 191.593 99.2446C192.133 98.791 192.823 98.5529 193.529 98.576C193.914 98.563 194.297 98.63 194.655 98.7727C195.012 98.9154 195.336 99.1308 195.605 99.405C195.885 99.7149 196.099 100.077 196.238 100.47C196.376 100.863 196.435 101.279 196.411 101.695C196.441 102.336 196.318 102.976 196.052 103.56C195.821 104.008 195.459 104.375 195.015 104.613C194.56 104.863 194.048 104.992 193.529 104.988C193.142 105.004 192.756 104.939 192.395 104.796C192.035 104.654 191.709 104.438 191.439 104.162C190.905 103.6 190.64 102.805 190.64 101.768ZM191.714 101.768C191.665 102.4 191.849 103.027 192.23 103.534C192.391 103.719 192.59 103.868 192.813 103.969C193.037 104.071 193.28 104.124 193.525 104.124C193.771 104.124 194.014 104.071 194.237 103.969C194.461 103.868 194.66 103.719 194.82 103.534C195.165 103.144 195.337 102.545 195.337 101.738C195.381 101.119 195.196 100.506 194.817 100.013C194.655 99.8301 194.457 99.6833 194.234 99.5826C194.01 99.482 193.768 99.43 193.524 99.43C193.279 99.43 193.037 99.482 192.814 99.5826C192.591 99.6833 192.392 99.8301 192.23 100.013C191.85 100.516 191.666 101.14 191.714 101.768Z" fill="#2F80ED"/>
<path d="M204.929 104.837V104.062C204.749 104.353 204.495 104.592 204.191 104.752C203.888 104.913 203.547 104.99 203.204 104.974C202.727 104.975 202.259 104.834 201.862 104.57C201.442 104.293 201.111 103.902 200.906 103.443C200.671 102.918 200.557 102.347 200.571 101.772C200.562 101.2 200.666 100.632 200.876 100.1C201.057 99.6323 201.38 99.2318 201.799 98.9537C202.208 98.6892 202.686 98.5508 203.174 98.5559C203.519 98.5493 203.859 98.6298 204.164 98.7899C204.443 98.9368 204.685 99.1448 204.872 99.3983V96.3596H205.908V104.831L204.929 104.837ZM201.627 101.775C201.581 102.403 201.758 103.027 202.127 103.537C202.266 103.717 202.444 103.864 202.648 103.965C202.852 104.066 203.077 104.12 203.305 104.122C203.528 104.122 203.749 104.072 203.95 103.976C204.151 103.879 204.327 103.738 204.466 103.564C204.822 103.071 204.992 102.468 204.945 101.862C204.945 101.023 204.784 100.405 204.459 100.013C204.319 99.829 204.137 99.6798 203.928 99.5777C203.72 99.4755 203.49 99.4233 203.258 99.4251C203.033 99.4229 202.811 99.4728 202.609 99.5708C202.407 99.6689 202.231 99.8124 202.094 99.9901C201.785 100.368 201.627 100.963 201.627 101.775Z" fill="#2F80ED"/>
<path d="M207.15 101.768C207.15 100.632 207.465 99.7928 208.099 99.2446C208.64 98.7916 209.329 98.5535 210.035 98.576C210.42 98.5624 210.804 98.6291 211.161 98.7718C211.519 98.9146 211.843 99.1303 212.112 99.405C212.391 99.7149 212.606 100.077 212.744 100.47C212.882 100.863 212.941 101.279 212.917 101.695C212.948 102.336 212.826 102.975 212.561 103.56C212.328 104.006 211.967 104.373 211.524 104.613C211.069 104.864 210.556 104.993 210.035 104.988C209.647 105.001 209.262 104.934 208.902 104.789C208.543 104.644 208.218 104.426 207.948 104.149C207.415 103.6 207.15 102.805 207.15 101.768ZM208.22 101.768C208.173 102.4 208.356 103.027 208.737 103.534C208.897 103.719 209.097 103.868 209.32 103.97C209.544 104.072 209.787 104.124 210.033 104.124C210.279 104.124 210.522 104.072 210.746 103.97C210.97 103.868 211.169 103.719 211.33 103.534C211.665 103.142 211.847 102.531 211.847 101.738C211.891 101.119 211.706 100.506 211.327 100.013C211.165 99.83 210.966 99.6831 210.742 99.5825C210.519 99.4819 210.277 99.4298 210.032 99.4298C209.786 99.4298 209.544 99.4819 209.321 99.5825C209.098 99.6831 208.898 99.83 208.737 100.013C208.357 100.517 208.174 101.14 208.22 101.768Z" fill="#2F80ED"/>
<path d="M217.191 102.116L218.251 102.023C218.278 102.392 218.393 102.75 218.587 103.066C218.802 103.366 219.099 103.598 219.442 103.734C219.855 103.907 220.299 103.992 220.747 103.985C221.134 103.992 221.518 103.928 221.881 103.794C222.172 103.695 222.427 103.514 222.616 103.273C222.773 103.064 222.858 102.809 222.857 102.547C222.862 102.296 222.78 102.051 222.626 101.852C222.42 101.62 222.156 101.447 221.861 101.351C221.633 101.264 221.126 101.127 220.345 100.939C219.78 100.823 219.23 100.646 218.704 100.411C218.337 100.233 218.025 99.9607 217.798 99.6223C217.599 99.3061 217.495 98.9393 217.5 98.566C217.499 98.1396 217.626 97.7227 217.865 97.3692C218.124 96.9832 218.497 96.6866 218.932 96.5201C219.428 96.3234 219.958 96.2257 220.492 96.2326C221.066 96.22 221.637 96.3235 222.17 96.5368C222.622 96.7156 223.009 97.0268 223.28 97.4294C223.541 97.828 223.685 98.291 223.696 98.7665L222.619 98.8468C222.607 98.6155 222.548 98.3891 222.447 98.1808C222.345 97.9724 222.203 97.7863 222.029 97.6333C221.597 97.3331 221.075 97.1892 220.549 97.2254C220.025 97.1827 219.502 97.3131 219.06 97.5965C218.916 97.699 218.799 97.834 218.718 97.9903C218.637 98.1466 218.594 98.3198 218.593 98.4958C218.59 98.638 218.619 98.7792 218.677 98.9092C218.735 99.0392 218.821 99.1549 218.929 99.2479C219.144 99.4418 219.71 99.6424 220.606 99.8496C221.248 99.9753 221.878 100.156 222.488 100.391C222.926 100.574 223.305 100.872 223.585 101.254C223.822 101.61 223.945 102.03 223.938 102.457C223.935 102.911 223.8 103.355 223.549 103.734C223.275 104.145 222.888 104.468 222.435 104.663C221.918 104.891 221.359 105.005 220.794 104.998C220.134 105.018 219.477 104.904 218.862 104.663C218.362 104.46 217.935 104.11 217.637 103.661C217.344 103.199 217.189 102.663 217.191 102.116Z" fill="#2F80ED"/>
<path d="M229.396 104.837V103.935C229.188 104.261 228.899 104.528 228.557 104.711C228.215 104.893 227.831 104.984 227.444 104.974C227.097 104.976 226.754 104.906 226.437 104.767C226.161 104.658 225.919 104.478 225.736 104.246C225.571 104.014 225.457 103.751 225.4 103.473C225.35 103.153 225.329 102.828 225.337 102.504V98.703H226.38V102.103C226.369 102.471 226.39 102.839 226.444 103.203C226.501 103.461 226.65 103.69 226.863 103.848C227.094 104.008 227.37 104.09 227.652 104.082C227.962 104.082 228.267 103.999 228.534 103.841C228.795 103.694 228.999 103.465 229.114 103.189C229.246 102.803 229.304 102.396 229.285 101.989V98.703H230.329V104.837H229.396Z" fill="#2F80ED"/>
<path d="M231.943 104.837V96.3663H232.986V104.837H231.943Z" fill="#2F80ED"/>
<path d="M87.3353 88.1227V77.4588H94.8034V79.3107H89.5194V81.731H94.1492V83.583H89.5194V88.1227H87.3353Z" fill="#2F80ED"/>
<path d="M102.768 80.2535V88.1227H100.698V87.19C100.419 87.5524 100.06 87.8453 99.6479 88.0458C99.2279 88.2409 98.7692 88.3392 98.3059 88.3333C97.437 88.3333 96.7895 88.106 96.3534 87.6647C95.9172 87.2234 95.7059 86.5348 95.7059 85.6322V80.2835H97.8195V85.0271C97.7828 85.4458 97.8816 85.8652 98.1013 86.2239C98.2192 86.3521 98.3655 86.4512 98.5286 86.5133C98.6916 86.5754 98.867 86.5988 99.0407 86.5816C99.2576 86.5921 99.4743 86.5581 99.6775 86.4816C99.8807 86.4051 100.066 86.2878 100.222 86.137C100.372 85.9738 100.488 85.7825 100.564 85.5742C100.639 85.3659 100.672 85.1447 100.661 84.9235V80.2535H102.768Z" fill="#2F80ED"/>
<path d="M104.617 88.1227V80.2535H106.687V81.1861C106.962 80.8217 107.321 80.5283 107.733 80.3303C108.153 80.1355 108.612 80.0372 109.075 80.0429C109.948 80.0429 110.599 80.2657 111.031 80.7114C111.467 81.1627 111.682 81.8413 111.682 82.7473V88.1127H109.568V83.3557C109.605 82.9319 109.504 82.5077 109.28 82.1456C109.163 82.0173 109.018 81.9178 108.856 81.8552C108.694 81.7925 108.52 81.7683 108.347 81.7845C108.13 81.7739 107.912 81.8079 107.709 81.8844C107.505 81.9609 107.319 82.0782 107.163 82.2291C107.013 82.3926 106.898 82.584 106.823 82.7923C106.748 83.0006 106.715 83.2216 106.727 83.4426V88.1227H104.617Z" fill="#2F80ED"/>
<path d="M120.757 77.4588V88.1227H118.744V87.0596C118.486 87.4695 118.134 87.8131 117.718 88.0625C117.307 88.2889 116.844 88.4041 116.376 88.3968C115.918 88.4071 115.464 88.3081 115.053 88.1081C114.641 87.908 114.284 87.6127 114.01 87.2468C113.378 86.374 113.06 85.3138 113.108 84.2382C113.058 83.1469 113.376 82.0702 114.01 81.1794C114.427 80.6286 115.025 80.2409 115.699 80.084C116.374 79.927 117.082 80.0106 117.701 80.3203C118.105 80.5394 118.446 80.8582 118.69 81.2463V77.4588H120.757ZM115.228 84.1446C115.187 84.7824 115.344 85.4173 115.678 85.9632C115.824 86.1683 116.02 86.3334 116.248 86.4433C116.475 86.5531 116.727 86.6041 116.979 86.5916C117.229 86.6047 117.478 86.5542 117.703 86.4449C117.928 86.3355 118.121 86.1709 118.264 85.9665C118.595 85.4183 118.749 84.7827 118.707 84.1446C118.746 83.5357 118.583 82.931 118.244 82.423C118.091 82.2249 117.892 82.0665 117.664 81.9611C117.437 81.8558 117.187 81.8067 116.936 81.8179C116.692 81.8101 116.45 81.8629 116.231 81.9714C116.013 82.0799 115.825 82.2409 115.684 82.4397C115.356 82.9425 115.197 83.5358 115.228 84.1346V84.1446Z" fill="#2F80ED"/>
<path d="M127.182 87.1466C126.923 87.5465 126.562 87.8698 126.135 88.0826C125.666 88.3091 125.15 88.4236 124.629 88.4169C124.305 88.4379 123.98 88.391 123.676 88.2793C123.371 88.1676 123.093 87.9936 122.861 87.7683C122.419 87.2541 122.196 86.5884 122.24 85.913C122.219 85.602 122.263 85.29 122.37 84.997C122.477 84.704 122.644 84.4364 122.861 84.2115C123.277 83.8203 123.958 83.5429 124.914 83.4092C125.132 83.3757 125.417 83.3356 125.769 83.2922C126.668 83.1752 127.111 82.9178 127.111 82.5166C127.121 82.3892 127.1 82.2613 127.047 82.1445C126.995 82.0277 126.915 81.9258 126.813 81.848C126.505 81.683 126.155 81.611 125.806 81.6408C125.46 81.6181 125.115 81.7072 124.823 81.8948C124.712 81.9785 124.623 82.0882 124.565 82.2141C124.506 82.34 124.48 82.4784 124.488 82.6169V82.7339H122.512V82.5901C122.496 82.2283 122.565 81.8678 122.715 81.5375C122.864 81.2072 123.088 80.9163 123.371 80.688C124.056 80.1913 124.893 79.9468 125.739 79.9961C126.842 79.9961 127.688 80.1866 128.279 80.5677C128.559 80.7406 128.789 80.9846 128.944 81.2747C129.099 81.5648 129.174 81.8907 129.161 82.2191V86.6953C129.149 86.9434 129.183 87.1916 129.262 87.4274C129.327 87.5852 129.446 87.7152 129.597 87.7951V88.1494H127.43C127.355 88.0081 127.298 87.8575 127.262 87.7015C127.214 87.5203 127.187 87.334 127.182 87.1466ZM127.145 84.2482C126.764 84.4195 126.366 84.5485 125.957 84.6327C125.508 84.7296 125.286 84.7798 125.263 84.7865C124.971 84.8476 124.702 84.9849 124.481 85.1843C124.322 85.3696 124.243 85.6097 124.26 85.8528C124.254 85.9816 124.276 86.11 124.325 86.2294C124.374 86.3487 124.447 86.4563 124.541 86.5448C124.755 86.7226 125.028 86.8133 125.306 86.7989C125.551 86.8114 125.795 86.7753 126.026 86.6926C126.256 86.61 126.468 86.4825 126.648 86.3175C126.816 86.1434 126.945 85.9371 127.03 85.7111C127.114 85.4852 127.151 85.2444 127.138 85.0037L127.145 84.2482Z" fill="#2F80ED"/>
<path d="M135.79 85.1542H137.874C137.836 86.0557 137.443 86.9059 136.78 87.521C136.093 88.115 135.204 88.4258 134.294 88.3901C133.791 88.414 133.29 88.3259 132.825 88.1322C132.361 87.9385 131.946 87.644 131.61 87.2702C130.959 86.5259 130.634 85.4951 130.634 84.178C130.634 82.8609 130.969 81.8313 131.64 81.0892C131.988 80.7129 132.414 80.4174 132.889 80.2239C133.364 80.0303 133.876 79.9434 134.388 79.9693C135.273 79.9318 136.14 80.2211 136.824 80.7816C137.139 81.0699 137.394 81.4186 137.571 81.8069C137.749 82.1951 137.846 82.615 137.857 83.0415H135.757C135.728 82.6786 135.571 82.3377 135.314 82.0787C135.058 81.8489 134.722 81.7288 134.378 81.7444C134.145 81.7315 133.912 81.7819 133.706 81.8903C133.499 81.9986 133.325 82.1607 133.204 82.3595C132.908 82.928 132.774 83.5659 132.815 84.2048C132.778 84.814 132.918 85.4209 133.217 85.9531C133.34 86.1477 133.512 86.3068 133.715 86.4142C133.919 86.5216 134.148 86.5735 134.378 86.5649C134.551 86.5733 134.724 86.5462 134.886 86.4853C135.049 86.4243 135.196 86.3308 135.321 86.2105C135.586 85.9171 135.751 85.5471 135.79 85.1542ZM132.701 91.2951V90.3758C133.09 90.4761 133.442 90.5563 133.757 90.6065C134.023 90.6554 134.292 90.6822 134.563 90.6867C134.756 90.7025 134.949 90.6581 135.116 90.5597C135.175 90.5118 135.222 90.4503 135.252 90.3803C135.282 90.3104 135.294 90.2342 135.287 90.1585C135.294 90.0811 135.278 90.0033 135.243 89.9342C135.207 89.865 135.153 89.8072 135.086 89.7674C134.874 89.6776 134.644 89.6387 134.415 89.6537H134.163C134.11 89.65 134.056 89.65 134.002 89.6537V88.126H134.744V88.7779H134.851C135.304 88.7421 135.756 88.8599 136.133 89.1122C136.272 89.253 136.382 89.4204 136.455 89.6045C136.528 89.7885 136.563 89.9854 136.558 90.1833C136.553 90.3812 136.508 90.576 136.426 90.7562C136.344 90.9363 136.226 91.098 136.079 91.2316C135.652 91.5043 135.149 91.6321 134.643 91.596C134.352 91.5921 134.061 91.5653 133.774 91.5157C133.439 91.4689 133.081 91.3954 132.701 91.2951Z" fill="#2F80ED"/>
<path d="M143.738 87.1466C143.482 87.5479 143.12 87.8716 142.692 88.0826C142.224 88.3096 141.709 88.4241 141.189 88.4169C140.865 88.4381 140.54 88.3913 140.235 88.2796C139.931 88.1679 139.653 87.9937 139.421 87.7683C138.977 87.255 138.754 86.5886 138.8 85.913C138.778 85.6019 138.822 85.2897 138.929 84.9965C139.036 84.7034 139.203 84.436 139.421 84.2115C139.834 83.8215 140.519 83.554 141.474 83.4092C141.692 83.3757 141.977 83.3356 142.329 83.2922C143.224 83.1763 143.671 82.9178 143.671 82.5166C143.681 82.3893 143.659 82.2615 143.606 82.1448C143.554 82.0282 143.474 81.9262 143.373 81.848C143.064 81.6832 142.715 81.6112 142.366 81.6408C142.021 81.6181 141.677 81.7072 141.386 81.8948C141.275 81.9785 141.187 82.0882 141.128 82.2141C141.07 82.34 141.043 82.4784 141.051 82.6169V82.7339H139.075V82.5901C139.058 82.2282 139.127 81.8674 139.277 81.537C139.426 81.2066 139.651 80.9157 139.934 80.688C140.619 80.1908 141.456 79.9462 142.302 79.9961C143.405 79.9961 144.252 80.1866 144.842 80.5677C145.123 80.7406 145.352 80.9846 145.507 81.2747C145.662 81.5648 145.737 81.8907 145.724 82.2191V86.6953C145.712 86.9434 145.746 87.1916 145.825 87.4274C145.888 87.5866 146.007 87.7174 146.161 87.7951V88.1494H143.96C143.883 88.0087 143.826 87.8579 143.792 87.7015C143.754 87.5189 143.736 87.3329 143.738 87.1466ZM144.668 77.0041C144.594 77.4884 144.403 77.9474 144.111 78.3413C143.995 78.4803 143.849 78.5914 143.684 78.6661C143.519 78.7408 143.339 78.7772 143.158 78.7725C143.064 78.773 142.969 78.7663 142.876 78.7525C142.787 78.7404 142.7 78.7203 142.614 78.6923L141.98 78.5018C141.89 78.4784 141.802 78.4616 141.725 78.4483C141.65 78.4434 141.575 78.4434 141.501 78.4483C141.356 78.4415 141.214 78.4879 141.101 78.5786C140.983 78.6946 140.9 78.8419 140.863 79.0032H140.061C140.129 78.5355 140.315 78.0926 140.601 77.7162C140.718 77.5821 140.863 77.4757 141.026 77.4046C141.189 77.3334 141.366 77.2994 141.544 77.305C141.646 77.3043 141.749 77.3122 141.849 77.3284C141.957 77.3469 142.064 77.3726 142.168 77.4053L142.839 77.5858C142.899 77.6058 142.961 77.6203 143.024 77.6293C143.095 77.6346 143.167 77.6346 143.238 77.6293C143.31 77.6313 143.382 77.6187 143.449 77.5923C143.516 77.5658 143.577 77.5261 143.628 77.4755C143.746 77.3429 143.827 77.1814 143.862 77.0075L144.668 77.0041ZM143.701 84.265C143.321 84.4372 142.923 84.5662 142.514 84.6494C142.068 84.7463 141.843 84.7965 141.823 84.8032C141.531 84.8632 141.261 85.0006 141.041 85.201C140.882 85.3863 140.802 85.6264 140.82 85.8696C140.814 85.9983 140.836 86.1267 140.885 86.2461C140.934 86.3655 141.007 86.473 141.101 86.5615C141.315 86.7402 141.588 86.8311 141.866 86.8156C142.111 86.8289 142.356 86.7931 142.586 86.7104C142.817 86.6277 143.028 86.4998 143.208 86.3342C143.376 86.1606 143.506 85.9543 143.591 85.7283C143.675 85.5022 143.712 85.2612 143.698 85.0205L143.701 84.265Z" fill="#2F80ED"/>
<path d="M147.177 84.178C147.177 82.8676 147.533 81.8391 148.244 81.0925C148.955 80.3459 149.934 79.9715 151.18 79.9693C151.72 79.9407 152.261 80.026 152.766 80.2195C153.271 80.413 153.73 80.7105 154.112 81.0925C154.827 81.8413 155.184 82.8698 155.182 84.178C155.182 85.4885 154.826 86.5181 154.112 87.2669C153.73 87.6489 153.271 87.9464 152.766 88.1399C152.261 88.3335 151.72 88.4187 151.18 88.3901C149.934 88.3901 148.955 88.0157 148.244 87.2669C147.533 86.5214 147.177 85.4885 147.177 84.178ZM149.321 84.178C149.279 84.8173 149.449 85.4527 149.804 85.9866C149.971 86.1866 150.18 86.3475 150.417 86.4579C150.654 86.5683 150.912 86.6256 151.173 86.6256C151.434 86.6256 151.692 86.5683 151.929 86.4579C152.165 86.3475 152.374 86.1866 152.542 85.9866C152.857 85.4368 153.023 84.8146 153.023 84.1814C153.023 83.5482 152.857 82.9259 152.542 82.3762C152.373 82.1782 152.163 82.0191 151.926 81.91C151.689 81.801 151.432 81.7445 151.171 81.7445C150.91 81.7445 150.653 81.801 150.416 81.91C150.179 82.0191 149.969 82.1782 149.801 82.3762C149.447 82.9082 149.278 83.5413 149.321 84.178Z" fill="#2F80ED"/>
<path d="M160.567 82.8008C160.567 81.0803 161.037 79.713 161.979 78.699C162.921 77.685 164.191 77.1802 165.79 77.1847C167.389 77.1847 168.662 77.6905 169.608 78.7023C170.554 79.7141 171.033 81.0803 171.044 82.8008C171.044 84.519 170.57 85.8852 169.622 86.8992C168.673 87.9132 167.401 88.4202 165.804 88.4202C164.207 88.4202 162.936 87.9132 161.992 86.8992C161.049 85.8852 160.573 84.519 160.567 82.8008ZM162.811 82.8008C162.811 83.9752 163.073 84.8867 163.596 85.5353C163.859 85.8577 164.195 86.1137 164.577 86.2827C164.958 86.4518 165.374 86.5289 165.79 86.508C166.21 86.5305 166.63 86.4542 167.015 86.2852C167.401 86.1162 167.741 85.8593 168.008 85.5353C168.533 84.8867 168.797 83.9752 168.8 82.8008C168.802 81.6263 168.543 80.7159 168.025 80.0696C167.758 79.7449 167.418 79.4874 167.033 79.3178C166.647 79.1482 166.228 79.0714 165.807 79.0935C165.39 79.0726 164.974 79.1498 164.593 79.3188C164.212 79.4878 163.876 79.7438 163.613 80.0663C163.078 80.7103 162.811 81.6218 162.811 82.8008Z" fill="#2F80ED"/>
<path d="M172.148 85.5587H174.255C174.252 85.7316 174.29 85.9027 174.366 86.0583C174.442 86.2139 174.553 86.3496 174.691 86.4546C175.058 86.6749 175.484 86.7776 175.912 86.7487C176.244 86.767 176.574 86.6954 176.868 86.5415C176.973 86.484 177.059 86.399 177.118 86.2958C177.177 86.1926 177.207 86.0752 177.204 85.9565C177.204 85.6021 176.781 85.3313 175.939 85.1542C175.603 85.0806 175.322 85.0205 175.117 84.967C174.09 84.7062 173.377 84.3964 172.976 84.0376C172.776 83.855 172.618 83.6307 172.514 83.3805C172.411 83.1304 172.363 82.8605 172.376 82.5901C172.362 82.2255 172.434 81.8626 172.586 81.5306C172.738 81.1986 172.966 80.9066 173.252 80.678C173.937 80.1741 174.777 79.9236 175.627 79.9693C176.511 79.9186 177.387 80.1659 178.113 80.6713C178.413 80.9072 178.656 81.2079 178.822 81.5507C178.989 81.8934 179.076 82.2694 179.076 82.6503H177.019C177.02 82.5008 176.986 82.353 176.92 82.2186C176.855 82.0841 176.759 81.9665 176.64 81.8748C176.344 81.6746 175.99 81.5782 175.634 81.6006C175.323 81.5806 175.013 81.6429 174.734 81.7812C174.641 81.8364 174.564 81.916 174.513 82.0115C174.461 82.1069 174.437 82.2145 174.443 82.3227C174.443 82.637 174.966 82.9144 176.019 83.1551L176.593 83.2855C177.644 83.5329 178.362 83.8304 178.747 84.178C178.944 84.3663 179.098 84.5951 179.198 84.8485C179.297 85.1019 179.34 85.3739 179.324 85.6456C179.347 86.0376 179.272 86.4292 179.106 86.7856C178.941 87.1419 178.689 87.4519 178.374 87.6881C177.744 88.1561 176.826 88.3901 175.62 88.3901C174.531 88.3901 173.678 88.1461 173.06 87.658C172.758 87.4201 172.517 87.1143 172.357 86.7656C172.197 86.417 172.122 86.0354 172.138 85.6523L172.148 85.5587Z" fill="#2F80ED"/>
<path d="M182.132 88.1227L179.894 80.2535H182.038L183.33 85.6957L184.42 80.2434H186.577L187.725 85.6957L189.02 80.2434H191.07L188.852 88.1127H186.738L185.47 82.4899L184.249 88.1227H182.132Z" fill="#2F80ED"/>
<path d="M196.625 87.1466C196.369 87.5471 196.008 87.8707 195.582 88.0826C195.113 88.3091 194.597 88.4236 194.076 88.4169C193.752 88.4381 193.427 88.3913 193.122 88.2796C192.818 88.1679 192.54 87.9937 192.308 87.7683C191.864 87.255 191.641 86.5886 191.687 85.913C191.665 85.6019 191.709 85.2897 191.816 84.9965C191.923 84.7034 192.09 84.4359 192.308 84.2115C192.721 83.8215 193.406 83.554 194.361 83.4092C194.579 83.3757 194.864 83.3356 195.216 83.2922C196.111 83.1763 196.558 82.9177 196.558 82.5166C196.568 82.3892 196.546 82.2615 196.493 82.1448C196.441 82.0281 196.361 81.9262 196.26 81.848C195.951 81.683 195.602 81.611 195.253 81.6408C194.907 81.6176 194.562 81.7067 194.27 81.8948C194.159 81.9785 194.07 82.0882 194.012 82.2141C193.953 82.34 193.927 82.4783 193.935 82.6169V82.7339H191.959V82.5901C191.942 82.2282 192.011 81.8674 192.16 81.537C192.309 81.2066 192.535 80.9157 192.817 80.688C193.503 80.1908 194.34 79.9462 195.186 79.996C196.289 79.996 197.135 80.1866 197.726 80.5677C198.006 80.7406 198.236 80.9846 198.391 81.2747C198.546 81.5648 198.621 81.8907 198.608 82.2191V86.6953C198.596 86.9434 198.63 87.1916 198.709 87.4274C198.772 87.5866 198.891 87.7174 199.044 87.7951V88.1494H196.877C196.8 88.0087 196.744 87.8579 196.709 87.7015C196.661 87.52 196.633 87.334 196.625 87.1466ZM196.592 84.2482C196.211 84.4195 195.813 84.5485 195.404 84.6327C194.955 84.7296 194.733 84.7798 194.71 84.7864C194.418 84.8465 194.148 84.9839 193.928 85.1842C193.769 85.3696 193.689 85.6097 193.706 85.8528C193.701 85.9816 193.723 86.11 193.772 86.2294C193.821 86.3487 193.894 86.4563 193.988 86.5448C194.202 86.7232 194.475 86.814 194.753 86.7989C194.998 86.8121 195.243 86.7764 195.473 86.6937C195.704 86.611 195.915 86.4831 196.095 86.3175C196.264 86.1441 196.394 85.9379 196.479 85.7119C196.564 85.4858 196.601 85.2447 196.588 85.0037L196.592 84.2482Z" fill="#2F80ED"/>
<path d="M200.537 88.1227V77.4588H202.651V88.1227H200.537Z" fill="#2F80ED"/>
<path d="M211.813 77.4588V88.1227H209.8V87.0596C209.542 87.4695 209.19 87.8131 208.773 88.0625C208.363 88.2889 207.9 88.4041 207.432 88.3968C206.974 88.4071 206.52 88.3081 206.109 88.1081C205.697 87.908 205.34 87.6127 205.066 87.2468C204.431 86.3751 204.112 85.3144 204.16 84.2382C204.11 83.1463 204.429 82.0691 205.066 81.1794C205.482 80.6275 206.08 80.239 206.755 80.082C207.43 79.9249 208.138 80.0093 208.757 80.3203C209.168 80.536 209.515 80.8553 209.763 81.2463V77.4588H211.813ZM206.284 84.1446C206.241 84.7825 206.399 85.4179 206.734 85.9632C206.88 86.1685 207.076 86.3338 207.304 86.4437C207.531 86.5535 207.783 86.6044 208.035 86.5916C208.285 86.6047 208.534 86.5542 208.759 86.4449C208.984 86.3355 209.177 86.1709 209.32 85.9665C209.651 85.4183 209.805 84.7827 209.763 84.1446C209.803 83.5352 209.639 82.9299 209.297 82.423C209.144 82.2247 208.946 82.0661 208.719 81.9608C208.492 81.8554 208.242 81.8064 207.992 81.8179C207.748 81.8095 207.505 81.862 207.287 81.9706C207.068 82.0792 206.881 82.2404 206.74 82.4397C206.406 82.9402 206.242 83.5341 206.271 84.1346L206.284 84.1446Z" fill="#2F80ED"/>
<path d="M213.316 84.178C213.316 82.8676 213.672 81.8391 214.383 81.0925C215.094 80.3459 216.073 79.9715 217.318 79.9693C217.859 79.9407 218.399 80.026 218.905 80.2195C219.41 80.413 219.869 80.7105 220.251 81.0925C220.966 81.8413 221.324 82.8698 221.324 84.178C221.324 85.4885 220.965 86.5181 220.251 87.2669C219.869 87.6489 219.41 87.9464 218.905 88.1399C218.399 88.3335 217.859 88.4187 217.318 88.3901C216.075 88.3901 215.096 88.0157 214.383 87.2669C213.652 86.5214 213.316 85.4885 213.316 84.178ZM215.46 84.178C215.419 84.8172 215.589 85.452 215.943 85.9866C216.103 86.1965 216.312 86.3645 216.551 86.4758C216.791 86.587 217.054 86.6383 217.318 86.6251C217.581 86.6375 217.842 86.5859 218.079 86.4745C218.317 86.3633 218.523 86.1957 218.681 85.9866C218.996 85.4368 219.162 84.8146 219.162 84.1814C219.162 83.5482 218.996 82.9259 218.681 82.3762C218.522 82.168 218.314 82.0016 218.076 81.8915C217.839 81.7814 217.577 81.7309 217.315 81.7444C217.052 81.7307 216.789 81.781 216.549 81.8911C216.309 82.0012 216.1 82.1677 215.94 82.3762C215.585 82.908 215.414 83.5407 215.453 84.178H215.46Z" fill="#2F80ED"/>
<path d="M236.465 84.4588C236.448 85.0118 236.314 85.5549 236.072 86.0526C235.83 86.5503 235.484 86.9915 235.059 87.3471C234.107 88.096 232.916 88.477 231.704 88.4202C230.121 88.4202 228.891 87.9277 228.014 86.9426C227.135 85.9398 226.695 84.5792 226.695 82.8008C226.695 81.0223 227.142 79.5949 228.037 78.6321C228.933 77.6694 230.221 77.1847 231.902 77.1847C233.271 77.1847 234.35 77.519 235.14 78.1875C235.543 78.5395 235.867 78.9719 236.092 79.4568C236.317 79.9417 236.437 80.4682 236.445 81.0023H234.271C234.215 80.4638 233.95 79.9683 233.533 79.6216C233.059 79.2843 232.484 79.117 231.902 79.1469C231.487 79.1201 231.07 79.1907 230.687 79.3533C230.303 79.5159 229.964 79.7658 229.695 80.083C229.192 80.7047 228.94 81.614 228.94 82.8108C228.94 83.9719 229.19 84.8633 229.691 85.4851C230.161 86.0023 230.804 86.3318 231.499 86.4124C232.195 86.493 232.896 86.3191 233.472 85.923C233.918 85.5504 234.213 85.0287 234.301 84.4555L236.465 84.4588Z" fill="#2F80ED"/>
<path d="M238.055 88.1227V80.2535H240.018V81.5906C240.235 81.119 240.567 80.7088 240.984 80.3972C241.373 80.1401 241.832 80.0083 242.299 80.0194H242.504C242.542 80.017 242.58 80.017 242.618 80.0194V82.1556H241.913C241.678 82.1378 241.441 82.1684 241.218 82.2454C240.994 82.3225 240.789 82.4444 240.615 82.6035C240.298 82.9744 240.141 83.4551 240.179 83.9407V88.1026L238.055 88.1227Z" fill="#2F80ED"/>
<path d="M250.807 80.2535V88.1227H248.737V87.19C248.458 87.5524 248.099 87.8453 247.687 88.0458C247.267 88.2409 246.809 88.3392 246.345 88.3333C245.48 88.3333 244.83 88.1104 244.396 87.6647C243.962 87.219 243.745 86.5415 243.745 85.6322V80.2835H245.859V85.0271C245.821 85.4463 245.921 85.8663 246.144 86.2239C246.261 86.3523 246.407 86.4515 246.569 86.5136C246.732 86.5757 246.907 86.599 247.08 86.5816C247.297 86.5925 247.514 86.5587 247.717 86.4822C247.92 86.4057 248.105 86.2882 248.261 86.137C248.411 85.9738 248.527 85.7825 248.603 85.5742C248.678 85.3659 248.711 85.1447 248.7 84.9235V80.2535H250.807Z" fill="#2F80ED"/>
<path d="M251.985 88.1227V86.508L256.316 81.9249H252.233V80.2535H258.842V81.9684L254.582 86.3643H259V88.116L251.985 88.1227Z" fill="#2F80ED"/>
<path d="M427.883 71.6506V47.4257H444.777V51.6407H432.798V57.1296H443.295V61.3405H432.798V71.6506H427.883Z" fill="#2F80ED"/>
<path d="M447.335 71.6506V47.4257H452.315V71.6506H447.335Z" fill="#2F80ED"/>
<path d="M455.614 59.5627C455.614 55.6495 456.679 52.5446 458.81 50.248C460.941 47.9514 463.814 46.8017 467.429 46.799C471.044 46.799 473.923 47.9514 476.065 50.2562C478.206 52.561 479.277 55.6632 479.277 59.5627C479.277 63.465 478.206 66.5686 476.065 68.8734C473.923 71.1782 471.044 72.3292 467.429 72.3265C463.814 72.3265 460.941 71.1754 458.81 68.8734C456.679 66.5713 455.614 63.4678 455.614 59.5627ZM460.693 59.5627C460.693 62.228 461.284 64.2979 462.465 65.7726C463.646 67.2472 465.301 67.9845 467.429 67.9845C469.579 67.9845 471.25 67.2472 472.443 65.7726C473.635 64.2979 474.231 62.228 474.231 59.5627C474.231 56.9002 473.635 54.8303 472.443 53.3529C471.25 51.8755 469.579 51.1382 467.429 51.141C465.307 51.141 463.652 51.8755 462.465 53.3447C461.278 54.8139 460.687 56.8866 460.693 59.5627Z" fill="#2F80ED"/>
<path d="M503.448 63.3312C503.26 66.0839 502.2 68.2685 500.268 69.8852C498.336 71.5018 495.814 72.3128 492.701 72.3183C489.116 72.3183 486.33 71.2 484.344 68.9635C482.358 66.727 481.363 63.5866 481.36 59.5423C481.36 55.4215 482.374 52.2633 484.401 50.0678C486.428 47.8722 489.342 46.7799 493.143 46.7908C496.231 46.7908 498.672 47.5445 500.464 49.0519C502.257 50.5593 503.241 52.6893 503.415 55.442H498.504C498.375 54.2192 497.775 53.095 496.83 52.3084C495.918 51.5916 494.694 51.2311 493.147 51.2311C490.964 51.2311 489.3 51.9384 488.154 53.3529C487.008 54.7675 486.438 56.8347 486.443 59.5546C486.443 62.1898 487.011 64.2242 488.146 65.6579C489.281 67.0916 490.893 67.8097 492.983 67.8125C494.318 67.871 495.631 67.4609 496.695 66.6533C497.703 65.8076 498.369 64.624 498.57 63.3231L503.448 63.3312Z" fill="#2F80ED"/>
<path d="M506.583 71.6506V47.4257H518.316C520.955 47.4257 522.909 47.991 524.181 49.1216C525.452 50.2521 526.088 51.978 526.088 54.2991C526.132 55.5911 525.81 56.8692 525.159 57.9857C524.548 58.9653 523.598 59.6855 522.491 60.0092C523.42 60.288 524.217 60.8949 524.733 61.7174C525.175 62.4874 525.429 63.6794 525.495 65.3056L525.593 68.173V68.2713C525.631 69.7213 525.943 70.5993 526.53 70.9051V71.6424H521.075C520.88 71.2445 520.742 70.8212 520.665 70.3849C520.562 69.7963 520.505 69.2005 520.493 68.6031L520.428 66.0511C520.371 64.5519 520.088 63.5374 519.581 63.0077C519.073 62.4779 518.155 62.2157 516.827 62.2212H511.559V71.6424L506.583 71.6506ZM511.559 58.0185H517.412C518.68 58.0185 519.618 57.7604 520.215 57.2443C520.813 56.7282 521.107 55.9171 521.107 54.8112C521.139 54.3734 521.078 53.934 520.927 53.5217C520.777 53.1094 520.541 52.7336 520.236 52.419C519.659 51.8742 518.791 51.5998 517.641 51.5998H511.559V58.0185Z" fill="#2F80ED"/>
<path d="M529.616 47.3602H534.646V62.5571C534.646 64.4331 535.018 65.7985 535.763 66.6533C536.508 67.508 537.69 67.9381 539.311 67.9436C540.948 67.9436 542.151 67.5339 542.904 66.6615C543.657 65.789 544.03 64.4331 544.03 62.5653V47.3684H549.006V63.1101C549.006 66.0812 548.177 68.3614 546.518 69.9507C544.859 71.54 542.469 72.3347 539.348 72.3347C536.202 72.3347 533.794 71.5428 532.125 69.9589C530.455 68.375 529.618 66.0921 529.616 63.1101V47.3602Z" fill="#2F80ED"/>
<path d="M551.159 71.6506V67.4438L564.321 51.8168H551.425V47.4257H570.374V51.6407L557.155 67.2759H570.054V71.6506H551.159Z" fill="#2F80ED"/>
<path d="M366.965 97.4567H369.572C369.558 98.4639 369.332 99.4568 368.909 100.371C368.486 101.285 367.875 102.099 367.117 102.761C365.586 104.075 363.612 104.733 361.195 104.736C358.409 104.736 356.226 103.86 354.646 102.11C353.067 100.359 352.277 97.9373 352.277 94.8433C352.277 91.9869 353.105 89.7189 354.761 88.0395C356.417 86.3601 358.653 85.5203 361.469 85.5203C363.709 85.5203 365.542 86.0529 366.969 87.1179C367.668 87.6268 368.25 88.2787 368.678 89.0301C369.105 89.7815 369.368 90.6153 369.449 91.4762H366.805C366.705 90.9175 366.496 90.3841 366.189 89.9068C365.882 89.4295 365.484 89.0176 365.017 88.6949C363.917 88.0018 362.632 87.6629 361.334 87.7241C359.323 87.7241 357.766 88.3727 356.664 89.6698C355.562 90.9669 355.008 92.7952 355.003 95.1546C355.003 97.3829 355.578 99.1689 356.73 100.512C357.29 101.173 357.993 101.698 358.786 102.048C359.578 102.398 360.44 102.563 361.305 102.532C362.762 102.592 364.188 102.094 365.291 101.139C365.809 100.674 366.224 100.106 366.512 99.4728C366.8 98.8391 366.954 98.1528 366.965 97.4567Z" fill="#2F80ED"/>
<path d="M369.85 104.228L377.217 85.9914H380.184L387.551 104.228H384.633L382.537 98.7797H374.761L372.65 104.228H369.85ZM375.58 96.6497H381.747L378.686 88.6048L375.58 96.6497Z" fill="#2F80ED"/>
<path d="M391.377 88.6908V104.228H388.922V85.9914H392.765L397.676 99.9431C397.82 100.339 397.927 100.646 397.995 100.865C398.06 101.086 398.114 101.274 398.146 101.442C398.22 101.135 398.29 100.865 398.363 100.623C398.437 100.381 398.511 100.16 398.592 99.9431L403.671 85.9914H407.526V104.228H404.911V88.6908C404.85 88.953 404.776 89.2192 404.699 89.51C404.621 89.8009 404.531 90.0425 404.441 90.3088L399.35 104.236H396.808L391.836 90.3088C391.746 90.0753 391.668 89.8295 391.594 89.5633C391.52 89.297 391.439 88.9939 391.377 88.6908Z" fill="#2F80ED"/>
<path d="M411.05 104.228V85.9914H418.335C419.238 85.9733 420.141 86.0267 421.036 86.1512C421.605 86.2459 422.157 86.4254 422.673 86.6837C423.463 87.0743 424.113 87.7013 424.531 88.4778C424.976 89.3374 425.197 90.2954 425.174 91.2632C425.194 92.1993 424.973 93.1248 424.531 93.9503C424.091 94.7351 423.438 95.3797 422.648 95.81C422.126 96.089 421.56 96.2787 420.975 96.3712C419.926 96.5073 418.868 96.5634 417.811 96.5391H413.719V104.228H411.05ZM413.739 94.3353H418.241C419.808 94.3353 420.901 94.106 421.515 93.6431C422.129 93.1802 422.448 92.3897 422.448 91.2632C422.448 90.1367 422.137 89.4076 421.519 88.9366C420.901 88.4655 419.882 88.232 418.429 88.232H413.751L413.739 94.3353Z" fill="#2F80ED"/>
<path d="M427.6 97.3051V85.9914H430.285V97.3297C430.285 99.0419 430.694 100.305 431.513 101.119C432.331 101.932 433.602 102.342 435.323 102.348C437.026 102.348 438.296 101.938 439.133 101.119C439.972 100.299 440.39 99.0337 440.39 97.3461V85.9914H443.091V97.3051C443.091 99.7628 442.409 101.612 441.045 102.851C439.68 104.091 437.672 104.719 435.02 104.736C432.548 104.736 430.693 104.117 429.454 102.88C428.216 101.643 427.598 99.7847 427.6 97.3051Z" fill="#2F80ED"/>
<path d="M445.62 98.2227H448.215C448.204 98.8221 448.326 99.4165 448.574 99.9627C448.821 100.509 449.186 100.993 449.643 101.381C450.572 102.163 451.808 102.556 453.359 102.556C454.91 102.556 456.097 102.257 456.981 101.663C457.394 101.41 457.734 101.053 457.967 100.628C458.199 100.202 458.317 99.7234 458.307 99.2385C458.307 97.8431 456.649 96.7822 453.335 96.0558L452.876 95.9575C450.189 95.3703 448.415 94.7163 447.556 93.9954C447.119 93.6161 446.775 93.1415 446.55 92.6082C446.325 92.0749 446.225 91.4971 446.258 90.9191C446.239 90.1576 446.406 89.4029 446.743 88.72C447.08 88.0371 447.578 87.4465 448.194 86.9991C449.482 86.0105 451.198 85.5176 453.343 85.5204C455.525 85.5204 457.244 86.0378 458.499 87.0728C459.121 87.5917 459.617 88.246 459.948 88.9857C460.279 89.7253 460.438 90.5309 460.411 91.341H457.844C457.832 90.8028 457.706 90.2734 457.473 89.7881C457.24 89.3029 456.906 88.8729 456.494 88.527C455.675 87.8757 454.575 87.5521 453.167 87.5521C452.055 87.503 450.955 87.7884 450.007 88.3713C449.643 88.5921 449.343 88.9037 449.136 89.2757C448.928 89.6477 448.821 90.0672 448.824 90.4931C448.824 91.905 450.462 92.9577 453.736 93.6513L454.849 93.8971L455.131 93.9585C457.248 94.42 458.652 94.9239 459.342 95.47C459.865 95.8661 460.286 96.3815 460.57 96.9733C460.852 97.5928 460.992 98.2673 460.979 98.9477C461.006 99.7614 460.833 100.569 460.477 101.301C460.12 102.033 459.59 102.666 458.933 103.146C457.569 104.187 455.722 104.707 453.392 104.707C450.988 104.707 449.118 104.147 447.781 103.027C446.444 101.908 445.724 100.306 445.62 98.2227Z" fill="#2F80ED"/>
<path d="M475.393 104.228L468.346 85.9914H471.129L476.826 101.258L482.351 85.9914H485.158L478.201 104.228H475.393Z" fill="#2F80ED"/>
<path d="M486.652 104.228V85.9914H489.341V104.228H486.652Z" fill="#2F80ED"/>
<path d="M492.979 85.9914H500.653C501.57 85.9717 502.488 86.021 503.399 86.1389C503.947 86.2259 504.479 86.3929 504.979 86.6345C505.772 87.0199 506.434 87.6312 506.882 88.3918C507.33 89.2016 507.555 90.1164 507.532 91.042C507.558 91.9315 507.319 92.8085 506.845 93.5612C506.339 94.2972 505.627 94.8672 504.798 95.1997C505.446 95.3251 506.028 95.6799 506.436 96.1991C506.757 96.6688 506.961 97.4662 507.045 98.5913L507.274 101.598C507.288 102.09 507.38 102.577 507.549 103.04C507.665 103.336 507.889 103.577 508.175 103.716V104.224H505.069C504.82 103.844 504.646 103.032 504.545 101.786V101.709L504.385 99.3327C504.295 98.1039 504.013 97.3174 503.538 96.9569C503.063 96.5965 501.876 96.4121 499.977 96.4121H495.639V104.224H492.979V85.9914ZM495.611 88.1337V94.3108H500.207C501.844 94.3108 503.039 94.0609 503.722 93.5694C504.406 93.0778 504.749 92.2463 504.749 91.0912C504.749 89.9989 504.427 89.2356 503.784 88.8014C503.14 88.3672 501.947 88.1447 500.207 88.1337H495.611Z" fill="#2F80ED"/>
<path d="M514.932 104.228V88.2075H508.686V85.9914H523.882V88.2075H517.637V104.228H514.932Z" fill="#2F80ED"/>
<path d="M525.478 97.3051V85.9914H528.167V97.3297C528.167 99.0419 528.576 100.305 529.395 101.119C530.213 101.932 531.482 102.342 533.201 102.348C534.903 102.348 536.173 101.938 537.011 101.119C537.83 100.299 538.267 99.0337 538.267 97.3461V85.9914H540.969V97.3051C540.969 99.7628 540.286 101.612 538.922 102.851C537.558 104.091 535.549 104.719 532.894 104.736C530.422 104.736 528.568 104.117 527.332 102.88C526.096 101.643 525.478 99.7847 525.478 97.3051Z" fill="#2F80ED"/>
<path d="M541.726 104.228L549.092 85.9914H552.059L559.426 104.228H556.512L554.413 98.7797H546.637L544.525 104.228H541.726ZM547.455 96.6497H553.627L550.561 88.6048L547.455 96.6497Z" fill="#2F80ED"/>
<path d="M560.776 104.228V85.9914H563.49V101.926H573.353V104.228H560.776Z" fill="#2F80ED"/>
<path d="M416.199 31.8151V29.6851H412.63V16.2742H411.656C411.656 16.2742 411.77 15.3198 411.656 15.2092C415.188 8.02444 407.973 6.79149 407.973 6.79149L407.928 6.08285C408.087 5.9499 408.213 5.78091 408.295 5.58977C408.377 5.39862 408.412 5.19076 408.398 4.98327C408.384 4.77577 408.322 4.57455 408.215 4.39614C408.108 4.21772 407.96 4.0672 407.784 3.95692L407.58 0.901162C407.58 0.901162 407.58 0 407.076 0C406.573 0 406.548 0.733218 406.548 0.733218C406.548 0.733218 406.421 2.41266 406.291 4.01017C406.131 4.12085 405.999 4.26527 405.902 4.43317C405.805 4.60106 405.746 4.78829 405.73 4.98151C405.713 5.17474 405.739 5.36921 405.807 5.55107C405.874 5.73294 405.98 5.89772 406.119 6.03369C406.082 6.44331 406.053 6.68909 406.045 6.70137C398.981 8.94199 402.398 15.2829 402.398 15.2829V16.2373H401.277V29.7548H397.594V20.2557L398.715 19.1907V17.6751C398.302 17.5443 397.926 17.3193 397.615 17.018C397.303 16.7166 397.067 16.347 396.923 15.9383H395.183L394.271 17.0033H388.336L387.383 16.0038H385.648L384.694 17.1262H382.451L381.498 16.0612H379.947L378.883 17.0729H372.92L371.913 15.9506H370.399C370.232 16.3612 369.973 16.7276 369.642 17.0212C369.31 17.3147 368.915 17.5273 368.488 17.6423V19.2808L369.666 20.3458V29.6851H365.983V16.2168H364.755V15.1518C368.062 8.08179 361.223 6.79149 361.223 6.79149L361.121 6.00912C361.258 5.87319 361.363 5.70892 361.429 5.52788C361.496 5.34684 361.521 5.15343 361.505 4.96128C361.489 4.76913 361.43 4.58292 361.334 4.41576C361.238 4.2486 361.107 4.10456 360.949 3.99379L360.712 0.847912C360.712 0.847912 360.544 0.00409629 360.208 0.00409629C359.873 0.00409629 359.746 0.847912 359.746 0.847912C359.746 0.847912 359.627 2.42904 359.5 3.95283C359.326 4.06162 359.18 4.2095 359.073 4.38476C358.966 4.56002 358.901 4.75783 358.883 4.96253C358.866 5.16723 358.896 5.37319 358.972 5.56409C359.048 5.75499 359.167 5.92559 359.32 6.06237C359.309 6.28909 359.283 6.51484 359.242 6.73824C352.179 8.58972 355.485 15.3402 355.485 15.3402V16.2947H354.364V29.8531H351V31.8151L352.404 32.9375V44.4396H351V46.2337L352.404 47.4134V55.3273H351V57.2935L352.404 58.5223V65.0312L351 67.5585V71.6547H416.199V67.5012L414.852 65.1582V58.3544L416.199 57.232V55.1552H414.852V47.5445L416.199 46.3689V44.2676H414.852V32.8801L416.199 31.8151Z" fill="#2F80ED"/>
<path d="M412.777 65.875V31.8766H410.702V18.2363H409.475V14.4227C409.799 14.1029 410.054 13.7196 410.224 13.2968C410.393 12.8739 410.474 12.4205 410.461 11.965C410.477 11.5116 410.401 11.0596 410.239 10.6361C410.076 10.2125 409.83 9.82608 409.515 9.49974C409.2 9.1734 408.823 8.91386 408.406 8.7366C407.988 8.55934 407.54 8.46799 407.087 8.46799C406.633 8.46799 406.185 8.55934 405.767 8.7366C405.35 8.91386 404.973 9.1734 404.658 9.49974C404.343 9.82608 404.097 10.2125 403.935 10.6361C403.772 11.0596 403.696 11.5116 403.712 11.965C403.712 12.9276 403.9 13.7919 404.531 14.4227V18.351H403.352V31.8684H395.498V20.0345L396.006 18.6868L394.602 19.1333H372.359L371.07 18.9121L371.631 20.0345V31.8725H363.781V18.2936H362.59V14.4227C362.898 14.0961 363.135 13.7089 363.285 13.2858C363.435 12.8626 363.495 12.4128 363.462 11.965C363.478 11.5116 363.402 11.0596 363.24 10.6361C363.077 10.2125 362.831 9.82608 362.516 9.49974C362.201 9.1734 361.824 8.91386 361.407 8.7366C360.989 8.55934 360.541 8.46799 360.088 8.46799C359.634 8.46799 359.186 8.55934 358.768 8.7366C358.351 8.91386 357.974 9.1734 357.659 9.49974C357.344 9.82608 357.098 10.2125 356.936 10.6361C356.773 11.0596 356.697 11.5116 356.713 11.965C356.687 12.4149 356.754 12.8653 356.909 13.2882C357.065 13.7111 357.306 14.0973 357.618 14.4227V18.351H356.496V31.8684H354.421V65.8668L353.075 67.9436V69.8483H414.181V68.0255L412.777 65.875Z" fill="white"/>
</svg>